<?xml version="1.0" encoding="UTF-8"?>
<svg width="22px" height="22px" viewBox="0 0 22 22" version="1.1" xmlns="http://www.w3.org/2000/svg" xmlns:xlink="http://www.w3.org/1999/xlink">
    <!-- Generator: Sketch 50.2 (55047) - http://www.bohemiancoding.com/sketch -->
    <title>icon/epay/jako</title>
    <desc>Created with Sketch.</desc>
    <defs>
        <rect id="path-1" x="0" y="0" width="22" height="22" rx="5"></rect>
    </defs>
    <g id="icon/epay/jako" stroke="none" stroke-width="1" fill="none" fill-rule="evenodd">
        <g id="Bitmap-Copy">
            <mask id="mask-2" fill="white">
                <use xlink:href="#path-1"></use>
            </mask>
            <use id="Mask" fill="#FF3B30" xlink:href="#path-1"></use>
            <path d="M17.8389121,4.86297071 C18.0690388,4.86297071 18.2651666,4.94403685 18.4273013,5.10617155 C18.589436,5.26830625 18.6705021,5.464434 18.6705021,5.69456067 C18.6705021,5.92468734 18.589436,6.12081509 18.4273013,6.28294979 C18.2651666,6.44508449 18.0690388,6.52615063 17.8389121,6.52615063 L15.4853556,6.52615063 C15.255229,6.52615063 15.0591012,6.44508449 14.8969665,6.28294979 C14.7348318,6.12081509 14.6537657,5.92468734 14.6537657,5.69456067 C14.6537657,5.464434 14.7348318,5.26830625 14.8969665,5.10617155 C15.0591012,4.94403685 15.255229,4.86297071 15.4853556,4.86297071 L17.8389121,4.86297071 Z M10.2761506,8.91108787 C10.3493728,8.91108787 10.3859833,8.87447735 10.3859833,8.80125523 L10.3859833,7.46757322 C10.3859833,7.3943511 10.3493728,7.35774059 10.2761506,7.35774059 L9.36610879,7.35774059 C9.14644242,7.35774059 8.96077482,7.27928949 8.80910042,7.12238494 C8.65742602,6.96548039 8.58158996,6.77719775 8.58158996,6.55753138 C8.58158996,6.33786501 8.65742602,6.14958237 8.80910042,5.99267782 C8.96077482,5.83577327 9.14644242,5.75732218 9.36610879,5.75732218 L10.2761506,5.75732218 C10.3493728,5.75732218 10.3859833,5.72071166 10.3859833,5.64748954 L10.3859833,4.91004184 C10.3859833,4.65899456 10.4748945,4.44456156 10.6527197,4.2667364 C10.8305448,4.08891124 11.0449778,4 11.2960251,4 C11.5470724,4 11.7615054,4.08891124 11.9393305,4.2667364 C12.1171557,4.44456156 12.2060669,4.65899456 12.2060669,4.91004184 L12.2060669,5.64748954 C12.2060669,5.72071166 12.2479075,5.75732218 12.33159,5.75732218 L13.2259414,5.75732218 C13.4456078,5.75732218 13.6338904,5.83577327 13.790795,5.99267782 C13.9476995,6.14958237 14.0261506,6.33786501 14.0261506,6.55753138 C14.0261506,6.77719775 13.9476995,6.96548039 13.790795,7.12238494 C13.6338904,7.27928949 13.4456078,7.35774059 13.2259414,7.35774059 L12.33159,7.35774059 C12.2479075,7.35774059 12.2060669,7.3943511 12.2060669,7.46757322 L12.2060669,8.80125523 C12.2060669,8.87447735 12.2479075,8.91108787 12.33159,8.91108787 L13.4299163,8.91108787 C13.660043,8.91108787 13.8561707,8.992154 14.0183054,9.1542887 C14.1804401,9.3164234 14.2615063,9.51255115 14.2615063,9.74267782 C14.2615063,9.9728045 14.1804401,10.1663172 14.0183054,10.3232218 C13.8561707,10.4801263 13.660043,10.5585774 13.4299163,10.5585774 L9.09937238,10.5585774 C8.86924571,10.5585774 8.67311797,10.4801263 8.51098326,10.3232218 C8.34884856,10.1663172 8.26778243,9.9728045 8.26778243,9.74267782 C8.26778243,9.51255115 8.34884856,9.3164234 8.51098326,9.1542887 C8.67311797,8.992154 8.86924571,8.91108787 9.09937238,8.91108787 L10.2761506,8.91108787 Z M6.03974895,4.78451883 C6.1966535,4.56485246 6.40062636,4.41318033 6.65167364,4.32949791 C6.77719728,4.27719639 6.90271904,4.25104603 7.02824268,4.25104603 C7.15376632,4.25104603 7.274058,4.27719639 7.38912134,4.32949791 C7.61924801,4.40272003 7.77092014,4.55439215 7.84414226,4.78451883 C7.86506287,4.85774095 7.87552301,4.93096198 7.87552301,5.0041841 C7.87552301,5.14016804 7.83368243,5.27091987 7.75,5.39644351 C7.08054059,6.33787082 6.33264012,7.19037275 5.50627615,7.9539749 C5.3598319,8.06903823 5.20292971,8.12656904 5.03556485,8.12656904 L4.89435146,8.12656904 C4.67468509,8.08472782 4.4968626,7.96966621 4.36087866,7.78138075 C4.24581532,7.6140159 4.18828452,7.43619341 4.18828452,7.24790795 C4.18828452,7.20606674 4.19351459,7.16422615 4.2039749,7.12238494 C4.2248955,6.88179796 4.32426689,6.68305518 4.50209205,6.52615063 C5.08786904,5.98221485 5.60041621,5.40167673 6.03974895,4.78451883 Z M6.51046025,8.18933054 C6.63598389,7.95920387 6.81380638,7.7970716 7.04393305,7.70292887 C7.16945669,7.65062735 7.30020853,7.62447699 7.43619247,7.62447699 C7.5407955,7.62447699 7.64539697,7.64016721 7.75,7.67154812 C7.98012667,7.75523054 8.14225894,7.90690267 8.23640167,8.12656904 C8.27824289,8.22071177 8.29916318,8.32008316 8.29916318,8.42468619 C8.29916318,8.53974953 8.27301281,8.65481114 8.2207113,8.76987448 C7.98012432,9.24058813 7.73431088,9.67468421 7.4832636,10.0721757 C7.44142238,10.1349376 7.42050209,10.2029285 7.42050209,10.2761506 L7.42050209,18.1213389 C7.42050209,18.3619259 7.33420588,18.5685138 7.16161088,18.7411088 C6.98901587,18.9137038 6.78242798,19 6.541841,19 C6.30125403,19 6.09466613,18.9137038 5.92207113,18.7411088 C5.74947612,18.5685138 5.66317992,18.3619259 5.66317992,18.1213389 L5.66317992,12.6140167 C5.66317992,12.5930961 5.65533481,12.5800209 5.63964435,12.5747908 C5.6239539,12.5695606 5.60564864,12.5721757 5.58472803,12.582636 C5.50104561,12.6767787 5.42259451,12.76569 5.34937238,12.8493724 C5.21338844,12.9853563 5.06171632,13.0533473 4.89435146,13.0533473 L4.76882845,13.0533473 C4.53870178,13.0115061 4.36610936,12.8912144 4.25104603,12.6924686 C4.21966512,12.6297068 4.18828468,12.572176 4.15690377,12.5198745 C4.05230073,12.3420493 4,12.1485366 4,11.9393305 L4,11.7981172 C4.03138091,11.5366096 4.14121245,11.3169465 4.32949791,11.1391213 C5.17678248,10.2813765 5.90376266,9.2981227 6.51046025,8.18933054 Z M18.0742678,9.14644351 C18.3043945,9.14644351 18.5031372,9.23012469 18.6705021,9.39748954 C18.8378669,9.56485439 18.9215481,9.76621221 18.9215481,10.001569 C18.9215481,10.2369259 18.8378669,10.4382837 18.6705021,10.6056485 C18.5031372,10.7730134 18.3043945,10.8566946 18.0742678,10.8566946 L17.8389121,10.8566946 C17.7552297,10.8566946 17.7133891,10.8933051 17.7133891,10.9665272 L17.7133891,16.8817992 C17.7133891,17.3734334 17.6637034,17.7526137 17.5643305,18.0193515 C17.4649577,18.2860892 17.27406,18.4979072 16.9916318,18.6548117 C16.6569021,18.8326369 16.149585,18.9372383 15.4696653,18.9686192 L15.4069038,18.9686192 C15.1663168,18.9686192 14.9518838,18.8901681 14.7635983,18.7332636 C14.5543923,18.5658987 14.4184104,18.3462357 14.3556485,18.0742678 C14.2824264,17.8336808 14.2092054,17.6035576 14.1359833,17.3838912 C14.1046024,17.3002088 14.0470715,17.2635983 13.9633891,17.2740586 C12.5826291,17.4518837 10.935156,17.6401664 9.0209205,17.8389121 C8.98953959,17.8493724 8.95292908,17.8546025 8.91108787,17.8546025 C8.7123421,17.8546025 8.53451961,17.7866116 8.37761506,17.6506276 C8.1788693,17.5041834 8.06903776,17.3106707 8.04811715,17.0700837 L8.04811715,16.960251 C8.04811715,16.7615053 8.11087803,16.5836828 8.23640167,16.4267782 C8.39330622,16.2384928 8.59204901,16.1338913 8.83263598,16.1129707 L10.2604603,15.9874477 C10.3336824,15.9874477 10.3702929,15.9456071 10.3702929,15.8619247 L10.3702929,14.1830544 C10.3702929,14.1098323 10.3336824,14.0732218 10.2604603,14.0732218 L9.20920502,14.0732218 C8.97907835,14.0732218 8.7829506,13.9921556 8.6208159,13.8300209 C8.4586812,13.6678862 8.37761506,13.4743735 8.37761506,13.249477 C8.37761506,13.0245805 8.4586812,12.8310678 8.6208159,12.6689331 C8.7829506,12.5067984 8.97907835,12.4257322 9.20920502,12.4257322 L10.2604603,12.4257322 C10.3336824,12.4257322 10.3702929,12.3891217 10.3702929,12.3158996 L10.3702929,11.7353556 C10.3702929,11.4843084 10.4592041,11.2724904 10.6370293,11.0998954 C10.8148544,10.9273004 11.0266724,10.8410042 11.2724895,10.8410042 C11.5183067,10.8410042 11.7301246,10.9273004 11.9079498,11.0998954 C12.0857749,11.2724904 12.1746862,11.4843084 12.1746862,11.7353556 L12.1746862,12.3158996 C12.1746862,12.3891217 12.2165268,12.4257322 12.3002092,12.4257322 L13.3357741,12.4257322 C13.5554404,12.4257322 13.7463381,12.5067984 13.9084728,12.6689331 C14.0706075,12.8310678 14.1516736,13.0245805 14.1516736,13.249477 C14.1516736,13.4743735 14.0706075,13.6678862 13.9084728,13.8300209 C13.7463381,13.9921556 13.5554404,14.0732218 13.3357741,14.0732218 L12.3002092,14.0732218 C12.2165268,14.0732218 12.1746862,14.1098323 12.1746862,14.1830544 L12.1746862,15.6893305 C12.1746862,15.7625527 12.2165268,15.7991632 12.3002092,15.7991632 C12.6349389,15.757322 13.0376546,15.7102513 13.5083682,15.6579498 L13.6025105,15.6579498 C13.8117165,15.6579498 13.9999992,15.7259407 14.167364,15.8619247 C14.3556495,16.0292895 14.4497908,16.2384925 14.4497908,16.4895397 L14.4654812,16.9759414 C14.4759415,17.0491635 14.5177821,17.0857741 14.5910042,17.0857741 L15.5638075,17.0857741 C15.6684106,17.0857741 15.7416316,17.0700838 15.7834728,17.0387029 C15.825314,17.007322 15.8462343,16.9445611 15.8462343,16.8504184 L15.8462343,10.9665272 C15.8462343,10.8933051 15.8043937,10.8566946 15.7207113,10.8566946 L15.3912134,10.8566946 C15.1506264,10.8566946 14.9492686,10.7730134 14.7871339,10.6056485 C14.6249992,10.4382837 14.5439331,10.2369259 14.5439331,10.001569 C14.5439331,9.76621221 14.6249992,9.56485439 14.7871339,9.39748954 C14.9492686,9.23012469 15.1506264,9.14644351 15.3912134,9.14644351 L18.0742678,9.14644351 Z" id="街" fill="#FFFFFF" mask="url(#mask-2)"></path>
        </g>
    </g>
</svg>