<svg xmlns="http://www.w3.org/2000/svg" xmlns:xlink="http://www.w3.org/1999/xlink" width="20" height="20" viewBox="0 0 20 20">
    <defs>
        <path id="a" d="M7.31 9.395a7.574 7.574 0 0 0 3.295 3.295l1.1-1.1a.497.497 0 0 1 .51-.12c.56.185 1.165.285 1.785.285.275 0 .5.225.5.5V14c0 .275-.225.5-.5.5A8.5 8.5 0 0 1 5.5 6c0-.275.225-.5.5-.5h1.75c.275 0 .5.225.5.5 0 .625.1 1.225.285 1.785a.502.502 0 0 1-.125.51l-1.1 1.1z"/>
    </defs>
    <g fill="none" fill-rule="evenodd">
        <circle cx="10" cy="10" r="10" fill="#D8D8D8"/>
        <use fill="#FFF" fill-rule="nonzero" xlink:href="#a"/>
    </g>
</svg>
