<svg xmlns="http://www.w3.org/2000/svg" xmlns:xlink="http://www.w3.org/1999/xlink" width="163" height="40" viewBox="0 0 163 40">
    <defs>
        <path id="a" d="M0 39.927h162.81V0H0z"/>
    </defs>
    <g fill="none" fill-rule="evenodd">
        <mask id="b" fill="#fff">
            <use xlink:href="#a"/>
        </mask>
        <path fill="#F2485C" d="M115.191 20.478l-.987.685a14.459 14.459 0 0 0-1.277-1.766l.988-.608c.547.64.973 1.202 1.276 1.69zm-3.965.929c-.03-.853-.03-1.72-.03-2.633h1.321c0 .928 0 1.811.03 2.633h2.66v1.37h-2.629c.091 2.375.258 4.292.517 5.785.288 1.598.546 2.405.79 2.42.167-.03.38-.913.653-2.649l1.109.624c-.425 2.405-1.018 3.623-1.762 3.639-1.034-.061-1.763-1.72-2.218-4.948a46.594 46.594 0 0 1-.395-4.87h-4.224v-1.371h4.178zm-.425 3.334v1.294h-1.215v3.318c.53-.106 1.063-.213 1.58-.335v1.294a51.3 51.3 0 0 1-4.224.761l-.334-1.293a60.287 60.287 0 0 0 1.626-.198v-3.547h-1.277V24.74h3.844zm-7.429 5.815h1.596v-2.07h-1.596v2.07zm-1.154-4.37h3.92v-1.278h-3.92v1.279zm0-2.115h3.92v-1.264h-3.92v1.264zm4.07 8.464h-1.32v-.67h-1.596v.883h-1.322v-5.541h4.239v5.328zm-1.351-11.996h1.716v1.34h-4.861v-1.34h1.778a18.85 18.85 0 0 0-.593-1.491l1.398-.381c.243.685.425 1.31.562 1.872zm13.523 12.118l-1.11-.99c.912-1.31 1.383-2.968 1.413-4.978V19.23h11.652v11.463c0 1.142-.592 1.72-1.746 1.72h-1.747l-.38-1.416c.592.046 1.139.076 1.656.076.485 0 .744-.304.744-.898v-2.268h-3.768v4.338h-1.458v-4.338h-3.57c-.183 1.918-.744 3.501-1.686 4.75zm6.714-6.09h3.768v-2.329h-3.768v2.33zm0-3.653h3.768v-2.283h-3.768v2.283zm-4.953 3.653h3.495v-2.329h-3.495v2.33zm0-3.653h3.495V20.63h-3.495v2.284zm21.302-3.136v-1.02h1.23v1.02h.912v-1.02h1.215v1.02h1.793v4.765h-6.912v-4.765h1.762zm-2.143 6.53v-1.126h7.642v1.127h-7.642zm6.958.655v3.075h-.91l-.29 1.081h1.99v1.202h-8.067V31.12h2.173l-.334-1.08h-.881v-3.076h6.32zm-5.09 2.01h3.86v-1.005h-3.86v1.004zm2.63 2.146l.288-1.08h-1.99l.334 1.08h1.368zm-5.211-7.87h.531v2.542h-.698v5.724c0 .746-.426 1.126-1.261 1.126h-1.003l-.319-1.156c.334.03.654.045.942.045.273 0 .425-.152.425-.441v-1.066c-.532.183-1.094.365-1.686.533l-.243-.837c-.107 1.217-.426 2.222-.972 3.014l-.957-.883c.5-.716.759-1.63.774-2.725v-3.288h-.713v-2.588h.562v-4.064h4.618v4.064zm-1.383 5.648v-2.558h-1.899v.807a13.1 13.1 0 0 1 1.732.441l-.38.944a11.34 11.34 0 0 0-1.352-.41v.897c0 .153-.015.29-.015.427a21.08 21.08 0 0 0 1.914-.548zm-2.628-3.623h3.373v-.96h-3.373v.96zm1.2-2.025v-2.01h1.641v-.958h-2.263v2.968h.622zm23.307 9.544l-1.017-.898c.972-.928 1.7-2.162 2.187-3.714l1.216.472c-.122.35-.244.685-.365.99.729.73 1.367 1.46 1.898 2.192l-.926.943c-.395-.64-.896-1.293-1.52-1.994-.44.791-.926 1.461-1.473 2.01zm-22.38-9.544h.714v-1.02h-.714v1.02zm7.824.32h.972v-.914h-.972v.914zm0-1.812h.972v-.928h-.972v.928zm-1.854 1.812h.912v-.914h-.912v.914zm0-1.812h.912v-.928h-.912v.928zm-1.899 1.812h.958v-.914h-.958v.914zm0-1.812h.958v-.928h-.958v.928zm14.542 6.21V23.95h3.25v4.019h-3.25zm.03-4.657l-.73-1.127c1.55-.852 2.735-1.979 3.571-3.364h1.17c.698 1.248 1.913 2.344 3.645 3.288l-.744 1.126a10.64 10.64 0 0 1-1.185-.746v.625h-4.649v-.503c-.364.259-.713.488-1.078.7zm.183 9.483l-1.019-.898c.988-.944 1.717-2.207 2.203-3.775l1.2.472a19.8 19.8 0 0 1-.318.898c.425.396.805.792 1.123 1.187l-.896.884a9.563 9.563 0 0 0-.745-.944c-.455.882-.972 1.598-1.548 2.176zm3.235-12.726c-.455.7-.972 1.31-1.534 1.858h3.129c-.668-.58-1.2-1.188-1.595-1.858zm-6.229 10.565l-.744.167c-.121-1.156-.243-2.176-.395-3.06l.669-.152c.182.944.334 1.95.47 3.045zm-1.29.807l-.821.106c-.03-1.628-.06-2.892-.106-3.79l.729-.076c.091.913.152 2.176.197 3.76zm3.508-5.663c0 3.41-.152 5.389-.425 5.952-.273.578-.82.867-1.61.867-.213 0-.441-.014-.684-.03l-.273-1.157c.258.03.501.061.744.061.577 0 .911-.304 1.002-.883.031-.152.046-.335.062-.548l-.624.229a45.914 45.914 0 0 0-.485-2.664l.638-.183c.212.883.364 1.69.486 2.42.045-.7.076-1.659.076-2.847h-4.269V19.23h5.362v1.233h-1.777v1.05h1.352v1.127h-1.352v1.02h1.352v1.127h-1.352v.989h1.777zm-4.77 1.887c-.045 1.614-.152 3.045-.334 4.293l-.836-.243c.213-1.203.35-2.588.41-4.14l.76.09zm.653-1.887h1.094v-.99h-1.094v.99zm0-2.116h1.094v-1.02h-1.094v1.02zm0-2.147h1.094v-1.05h-1.094v1.05zm5.804 5.39h1.002v-1.888h-1.002v1.887zm2.628 1.065v-4.019h3.236v4.019h-3.236zm1.124-1.066h.988v-1.887h-.988v1.887z" mask="url(#b)"/>
        <path fill="#525E61" d="M10.546 18.492v2.106H2.257v3.898H9.92v2.107H2.257v4.366h8.728v2.105H0V18.492h10.546zm15.765-.066l-8.366 12.543h8.094v2.106H13.6c.32-.474 8.509-12.542 8.509-12.542h-7.832v-2.107h12.035zm25.582 5.544v9.101H47.75V19.187l2.83 1.232c.91-1.34 2.411-2.549 4.262-2.549 1.695 0 3.231.66 4.424 1.698l-2.384 3.301c-.66-.91-1.539-1.446-2.448-1.446a2.534 2.534 0 0 0-2.541 2.547zm8.75 9.102v-14.78h4.141v14.78h-4.141zm15.297.376c-4.3 0-8.157-3.238-8.157-7.766 0-4.528 3.858-7.767 8.19-7.767 1.882 0 3.64.629 5.554 2.043l-1.511 2.207c-1.225-.787-2.507-1.17-4.043-1.17-1.82 0-3.923 1.354-3.923 4.687s2.072 4.686 3.923 4.686c1.536 0 3.012-.41 4.267-1.134l1.136 2.54c-1.6 1.132-3.333 1.674-5.436 1.674zm14.943-3.08c1.727 0 2.943-.396 4.577-1.353l1.226 2.349c-1.727 1.415-3.614 2.084-5.965 2.084-4.577 0-8.005-3.238-8.005-7.766 0-4.528 3.489-7.767 7.818-7.767 4.394 0 7.468 3.365 7.468 7.956v.944h-11.11c.273 2.256 2.153 3.553 3.991 3.553zm-.162-9.372c-1.57 0-3.359 1.007-3.829 3.428h7.06c-.156-2.264-1.663-3.428-3.231-3.428zm-63.12.85c1.946-2.39 4.99-3.93 8.378-3.93 5.398 0 8.85 4.024 8.85 8.175 0 4.087-3.233 7.357-7.344 7.357a8.036 8.036 0 0 1-2.353-.345v6.824h-4.143V22.254c-.627.41-1.191.85-1.694 1.384l-1.694-1.792zm7.53-1.007v9.653c.346.127.785.19 1.194.19 1.756 0 4.236-1.384 4.236-4.591 0-3.334-2.229-5.314-4.425-5.314-.344 0-.691.032-1.004.062z" mask="url(#b)"/>
        <path fill="#F2485C" d="M64.54 5.289a2.647 2.647 0 0 1 0 3.737 2.635 2.635 0 0 1-3.73 0 2.647 2.647 0 0 1 .001-3.737 2.634 2.634 0 0 1 3.73 0zm-4.583 4.593a2.646 2.646 0 0 1 0 3.737 2.634 2.634 0 0 1-3.73 0 2.646 2.646 0 0 1 0-3.737 2.633 2.633 0 0 1 3.73 0zm9.09-9.108a2.647 2.647 0 0 1 0 3.736 2.634 2.634 0 0 1-3.73.001 2.646 2.646 0 0 1 0-3.737 2.633 2.633 0 0 1 3.73 0zm-3.73 9.108a2.634 2.634 0 0 1 3.73 0 2.647 2.647 0 0 1 0 3.737 2.633 2.633 0 0 1-3.73 0 2.646 2.646 0 0 1 0-3.737zM56.228.774a2.634 2.634 0 0 1 3.73 0 2.646 2.646 0 0 1 0 3.737 2.633 2.633 0 0 1-3.73 0 2.646 2.646 0 0 1 0-3.737z" mask="url(#b)"/>
    </g>
</svg>
