<?xml version="1.0" encoding="UTF-8"?>
<svg width="28px" height="18px" viewBox="0 0 28 18" version="1.1" xmlns="http://www.w3.org/2000/svg" xmlns:xlink="http://www.w3.org/1999/xlink">
    <!-- Generator: Sketch 50.2 (55047) - http://www.bohemiancoding.com/sketch -->
    <title>icon/navigation/menu_24px</title>
    <desc>Created with Sketch.</desc>
    <defs>
        <path d="M0.95,7.5 L26.05,7.5 C26.5746705,7.5 27,7.92532949 27,8.45 L27,9.55 C27,10.0746705 26.5746705,10.5 26.05,10.5 L0.95,10.5 C0.425329488,10.5 1.06345433e-15,10.0746705 9.99200722e-16,9.55 L-1.11022302e-16,8.45 C-1.75275909e-16,7.92532949 0.425329488,7.5 0.95,7.5 Z M0.95,15 L26.05,15 C26.5746705,15 27,15.4253295 27,15.95 L27,17.05 C27,17.5746705 26.5746705,18 26.05,18 L0.95,18 C0.425329488,18 1.06345433e-15,17.5746705 9.99200722e-16,17.05 L-1.11022302e-16,15.95 C-1.75275909e-16,15.4253295 0.425329488,15 0.95,15 Z M0.95,0 L26.05,-1.11022302e-16 C26.5746705,-2.07402712e-16 27,0.425329488 27,0.95 L27,2.05 C27,2.57467051 26.5746705,3 26.05,3 L0.95,3 C0.425329488,3 1.06345433e-15,2.57467051 9.99200722e-16,2.05 L-1.11022302e-16,0.95 C-1.75275909e-16,0.425329488 0.425329488,-1.46418929e-17 0.95,-1.11022302e-16 Z" id="path-1"></path>
    </defs>
    <g id="Symbols" stroke="none" stroke-width="1" fill="none" fill-rule="evenodd">
        <g id="m/header" transform="translate(-20.000000, -19.000000)">
            <g id="header">
                <g id="ic/navigation/menu_24px" transform="translate(16.000000, 10.000000)">
                    <g id="↳-Color" transform="translate(4.500000, 9.000000)">
                        <mask id="mask-2" fill="white">
                            <use xlink:href="#path-1"></use>
                        </mask>
                        <use id="Mask" fill="#000000" fill-rule="nonzero" xlink:href="#path-1"></use>
                        <g id="✱-/-Color-/-Icons-/-dark-pink" mask="url(#mask-2)" fill="#F2485C">
                            <g transform="translate(-4.500000, -9.000000)" id="Rectangle">
                                <rect x="0" y="0" width="36" height="36"></rect>
                            </g>
                        </g>
                    </g>
                </g>
            </g>
        </g>
    </g>
</svg>