<svg xmlns="http://www.w3.org/2000/svg" width="24" height="24" viewBox="0 0 24 24">
    <defs>
        <linearGradient id="a" x1="50%" x2="50%" y1="100%" y2="0%">
            <stop offset="0%" stop-color="#DBB078"/>
            <stop offset="100%" stop-color="#B57943"/>
        </linearGradient>
        <filter id="b" width="135.4%" height="220.2%" x="-17.7%" y="-60.1%" filterUnits="objectBoundingBox">
            <feGaussianBlur in="SourceGraphic" stdDeviation="1"/>
        </filter>
        <filter id="c" width="132.5%" height="146%" x="-16.3%" y="-23%" filterUnits="objectBoundingBox">
            <feGaussianBlur in="SourceGraphic" stdDeviation="1 0"/>
        </filter>
    </defs>
    <g fill="none" fill-rule="nonzero" transform="translate(0 4)">
        <path fill="url(#a)" d="M21.957 2.01a1.996 1.996 0 0 0-1.896 2.612L18.44 5.65a2.495 2.495 0 0 1-3.27-.524l-1.588-1.941c.253-.34.39-.753.39-1.176a1.996 1.996 0 0 0-3.993 0c0 .423.137.836.39 1.176l-1.587 1.94a2.495 2.495 0 0 1-3.27.525l-1.62-1.03c.065-.198.099-.406.1-.615A1.996 1.996 0 1 0 1.82 5.994l1.18 7.076c.04.24.248.417.492.417H20.46a.499.499 0 0 0 .492-.417l1.18-7.076a1.996 1.996 0 0 0-.175-3.984z"/>
        <ellipse cx="11.977" cy="12.988" fill="#8B572A" filter="url(#b)" rx="8.483" ry="2.495"/>
        <ellipse cx="11.977" cy="12.988" fill="#8B572A" rx="8.483" ry="2.495"/>
        <path fill="#FFF" fill-opacity=".2" d="M15.17 5.127l-1.587-1.941c.253-.34.39-.753.39-1.176a1.996 1.996 0 0 0-3.993 0c0 .423.137.836.39 1.176l-1.587 1.94a2.495 2.495 0 0 1-3.27.525l-1.62-1.03c.065-.198.099-.406.1-.615A1.996 1.996 0 1 0 1.82 5.994l1.18 7.076 15.44-7.42a2.495 2.495 0 0 1-3.27-.523z" filter="url(#c)"/>
        <path fill="#DE9F68" d="M11.977 15.983c-4.465 0-8.983-1.028-8.983-2.995 0-1.966 4.518-2.994 8.983-2.994 4.464 0 8.982 1.028 8.982 2.994 0 1.967-4.518 2.995-8.982 2.995zm0-4.99c-5.242 0-7.985 1.297-7.985 1.995 0 .7 2.743 1.997 7.985 1.997 5.241 0 7.984-1.298 7.984-1.997 0-.698-2.743-1.996-7.984-1.996z"/>
    </g>
</svg>
