<?xml version="1.0" encoding="UTF-8"?>
<svg width="144px" height="36px" viewBox="0 0 144 36" version="1.1" xmlns="http://www.w3.org/2000/svg" xmlns:xlink="http://www.w3.org/1999/xlink">
    <!-- Generator: Sketch 52.1 (67048) - http://www.bohemiancoding.com/sketch -->
    <title>比卡（正方）</title>
    <desc>Created with Sketch.</desc>
    <g id="Symbols" stroke="none" stroke-width="1" fill="none" fill-rule="evenodd">
        <g id="Components/m/header/open" transform="translate(-55.000000, -10.000000)">
            <g id="Elements/logo/color/beeka" transform="translate(55.000000, 10.000000)">
                <g id="比卡（正方）">
                    <g id="Group-11">
                        <path d="M33.4159836,26.6696402 C31.8159183,26.5689531 31.8216739,29.0580822 33.4159836,29.1580501 C34.149107,29.2047977 34.8815109,29.2342846 35.6146344,29.2558604 C30.9971799,31.4148797 25.5199781,32.9417277 20.4708513,32.8396022 C15.4332358,32.7381959 9.4797556,31.3213845 5.17238569,28.6093054 C3.81261801,27.7527458 2.56220731,29.9052923 3.91621936,30.7582559 C8.60993595,33.7134225 14.9756632,35.2172563 20.4708513,35.3280121 C26.0646046,35.4416447 32.0080125,33.7234912 37.0686505,31.3098774 C36.8125249,31.9816042 36.5420103,32.6482967 36.2419981,33.3077973 C35.5844173,34.7548148 37.7291091,36.0205956 38.391726,34.5635093 C39.3090296,32.5461712 40.0795647,30.495031 40.6285079,28.3453613 C40.8227604,27.5837353 40.252953,26.7465939 39.428459,26.7703273 C37.4219023,26.8300204 35.4189429,26.7962183 33.4159836,26.6696402 Z" id="Fill-15" fill="#FFB466"></path>
                        <path d="M43.9580107,23.4319168 L43.9999934,2.72140242 C44.001441,2.17460936 43.7661935,1.68235018 43.3970359,1.33333333 C43.557728,1.61400105 43.6568939,1.93466028 43.6561701,2.27931442 L43.6134636,22.9905559 C43.6112921,24.0390607 42.7571627,24.8941519 41.7141114,24.8919706 L2.62248969,24.8127147 C2.12376497,24.8112604 1.67208975,24.6113029 1.33333333,24.2913708 C1.66050833,24.8621587 2.26708499,25.2526213 2.96631298,25.2540756 L42.0579347,25.3333315 C43.1002621,25.3347857 43.9558392,24.4796944 43.9580107,23.4319168" id="Fill-3" fill="#C06B27"></path>
                        <path d="M1.96050046,4.17544418e-06 L41.4217905,0.0794729192 C42.475475,0.0809310613 43.3355213,0.941963964 43.3333292,1.99328441 L43.2909479,22.760144 C43.2887558,23.8114645 42.425056,24.668123 41.3728329,24.6666648 L1.91008144,24.5871961 C0.857127605,24.5850089 -0.00218794668,23.7239759 4.18483348e-06,22.6726555 L0.042385394,1.90579588 C0.043846815,0.85520451 0.90754663,-0.00218303769 1.96050046,4.17544418e-06" id="Fill-1" fill="#FFB466"></path>
                        <path d="M0.444056278,22.8973404 L0.486139578,2.32952594 C0.488316301,1.28896769 1.34521936,0.439046063 2.3907717,0.441212388 L41.5754032,0.520644315 C41.9824503,0.521366424 42.3575721,0.652790159 42.6666667,0.872311122 C42.3220189,0.394997448 41.7633269,0.0794360631 41.1306262,0.0787139547 L1.94672032,4.13556879e-06 C0.900442413,-0.00216218973 0.0435393527,0.847037327 0.0413626303,1.88759558 L4.9043117e-06,22.4561322 C-0.00144624397,23.0930318 0.319257526,23.6562764 0.806117774,24 C0.579738643,23.6887713 0.443330704,23.3089422 0.444056278,22.8973404" id="Fill-9" fill="#58B2FE"></path>
                        <path d="M2.00000081,14.9761906 C2.00072126,14.4370776 2.48198256,13.9983043 3.06987061,14.0000049 L18.267065,14.0391204 C18.8542326,14.0408211 19.334053,14.4838461 19.3333325,15.0229591 C19.3326121,15.5620721 18.8506303,16.0016958 18.2634627,15.9999951 L3.06626836,15.959179 C2.47910076,15.9574783 1.99928036,15.5161539 2.00000081,14.9761906" id="Fill-5" fill="#FFFFFF"></path>
                        <path d="M12.6666675,17.6237768 C12.6673981,17.0905971 13.1554589,16.6600166 13.7516528,16.6667444 L18.918667,16.7281358 C19.5141303,16.7340226 20.0007298,17.1763768 19.9999992,17.7103975 C19.9992685,18.2427362 19.5112078,18.6733167 18.9150139,18.6665889 L13.7479996,18.6060385 C13.1525363,18.5984697 12.6659369,18.1569565 12.6666675,17.6237768" id="Fill-7" fill="#FFFFFF"></path>
                        <polygon id="Fill-12" fill="#333333" points="0 9.33333333 43.3333333 9.33333333 43.3333333 4 0 4"></polygon>
                        <path d="M35.9849479,19.3121986 C35.1959311,19.945338 34.20966,20.2318629 33.2066479,20.1175461 C31.1358427,19.8815844 29.6422426,17.9946237 29.8758905,15.9105397 C30.0942531,13.9715502 31.7327004,12.5345288 33.6273598,12.5345288 C33.7685676,12.5345288 33.9112312,12.5425896 34.0546226,12.5587112 C36.1239721,12.7939401 37.6175722,14.6816336 37.3839242,16.764252 C37.2711035,17.7740508 36.7739647,18.6790591 35.9849479,19.3121986 M41.7810189,22.2118893 C40.9228539,21.2790345 39.9409501,20.4839462 38.9998074,19.6397603 C39.4729263,18.8607936 39.7815454,17.9843645 39.8863595,17.0493113 C40.2765006,13.5765708 37.7871671,10.431392 34.3370382,10.0393439 C30.8854536,9.65315812 27.7635964,12.1534727 27.3734553,15.6262132 C26.984042,19.0996865 29.4733755,22.2448653 32.9235044,22.6369134 C33.1644311,22.6640271 33.4039021,22.6779503 33.6426452,22.6779503 C35.0612741,22.6779503 36.4289518,22.1979661 37.5549749,21.2951561 C37.5637094,21.2878281 37.571716,21.2797673 37.5804505,21.2724393 C38.4888389,22.0799852 39.4299817,22.8486927 40.2546644,23.7478387 C41.0436812,24.6059478 42.5671242,23.0678 41.7810189,22.2118893" id="Fill-14" fill="#FFFFFF"></path>
                    </g>
                    <g id="Group-5" transform="translate(47.000000, 8.000000)" fill="#FFFFFF">
                        <path d="M9.80700093,14.9191613 L14.2179648,2.45964574 C14.5588633,1.49742388 15.1916916,1.01677869 16.1173913,1.01957314 C17.0176649,1.02236759 17.2992358,1.50487574 16.9583372,2.4670976 L15.3781499,6.93076375 C16.3462265,6.54047241 17.2483835,6.13061993 18.0865043,5.70213778 C18.989603,5.22428704 19.5894715,5.36400948 19.8851681,6.12596251 C20.22795,7.02577501 19.8032394,7.71693534 18.6119778,8.19478608 C17.5384298,8.61022746 16.1352838,9.10763934 14.4025397,9.68515875 L12.5398397,14.9461743 C12.3336055,15.5292826 12.2422598,15.8897665 12.2648608,16.0294889 C12.2884035,16.1692114 12.4503774,16.2381411 12.7507825,16.2390726 L14.2471577,16.24373 C14.4872935,16.24373 14.7104784,16.104939 14.9176544,15.8282886 C15.274562,15.0560893 15.6842053,14.4515569 16.1447009,14.0146914 C16.6070799,13.5796888 17.0477996,13.4949239 17.4715685,13.7622595 C17.7484309,13.9289949 17.8529606,14.255014 17.7823324,14.743111 C17.7117042,15.2312081 17.5553806,15.7342088 17.311478,16.2521133 C16.7615201,17.2283074 16.2002617,17.9287826 15.6267611,18.3572647 C15.0532604,18.7876098 14.3648713,19.0018509 13.5597103,18.999988 L11.3419862,18.9925361 C10.188393,18.9897416 9.50659584,18.7028449 9.29282795,18.1309144 C9.08000177,17.5608468 9.25139276,16.490573 9.80700093,14.9191613 M9.65161899,9.13837828 L7.57985972,9.13278938 L5.52881804,14.9266131 C6.12115285,14.8139037 6.83967664,14.6704553 7.68344768,14.4953366 C8.67600871,14.3081085 9.04327513,14.714235 8.78618864,15.7146477 C8.55264487,16.5762694 7.99421157,17.1006943 7.10994705,17.2888538 C5.49868336,17.6260506 3.52203668,18.0265883 1.18189042,18.4895353 C0.705385787,18.5761632 0.378612848,18.5305206 0.200629892,18.3535388 C0.022646937,18.1746941 -0.0366807147,17.8514695 0.0217052282,17.3829336 C0.132826862,16.3564394 0.700677243,15.7686737 1.7280815,15.6196364 C1.82131066,15.5944864 1.96350869,15.5665419 2.15467556,15.5348715 C2.34584244,15.5041326 2.48615705,15.481777 2.57561938,15.4696677 L7.18057521,2.45778277 C7.52618232,1.48252015 8.16089402,0.99721755 9.08659373,1.000012 C10.0000512,1.00280645 10.2844473,1.4909035 9.93884016,2.46616612 L8.56017854,6.36069621 L10.6338212,6.36535362 C11.5114938,6.36814807 11.7864727,6.83202656 11.4587581,7.75605762 C11.1319852,8.68102016 10.5292915,9.14117272 9.65161899,9.13837828" id="Fill-16"></path>
                        <path d="M30.9338266,7.92443069 L37.0274493,7.94264276 C37.9137944,7.94455982 38.1945329,8.42190761 37.868726,9.37181054 C37.5372855,10.33705 36.9298011,10.8182319 36.042517,10.8153563 L29.9498333,10.7971442 L29.3921119,12.4189765 L29.8728415,11.9119142 C30.1301069,11.6531112 30.3610824,11.5553412 30.566707,11.6205212 C32.0154681,12.1860537 33.2811389,12.7640472 34.3618415,13.3535429 C34.7214497,13.5634609 34.8782502,13.824181 34.8313039,14.1376202 C34.7843577,14.4510594 34.5496264,14.8344713 34.1289881,15.2897729 C33.7214947,15.7450745 33.3872374,16.0287993 33.1280941,16.1371132 C32.8689509,16.2483026 32.5591056,16.1984591 32.1985585,15.9885411 C31.3713656,15.4642253 30.2362054,14.8546004 28.7958946,14.1587079 L27.3142711,18.4788012 C26.96593,19.4948427 26.3237053,20.0028635 25.389475,19.9999879 C24.4543058,19.9971123 24.1623002,19.4871745 24.5106413,18.471133 L27.1462035,10.7885174 L21.9689716,10.7741395 C21.0816876,10.7712639 20.8037658,10.2891235 21.1352063,9.32388406 C21.4619521,8.37398112 22.0684976,7.89855039 22.9548427,7.90142598 L28.1311358,7.91580393 L29.9817568,2.52119877 C30.3300979,1.50515729 30.9713836,0.99713655 31.9056139,1.00001214 C32.8407831,1.00288773 33.1337277,1.51378406 32.7853865,2.52982554 L32.5497164,3.21325722 L36.7194819,3.2257181 C37.5588808,3.22859369 37.8199019,3.69156354 37.5025453,4.6165447 C37.1851887,5.54248439 36.6068109,6.00353718 35.767412,6.00162012 L31.5976465,5.98915923 L30.9338266,7.92443069 Z" id="Fill-17"></path>
                        <path d="M46.3295759,3.00000563 L48.2826334,3.00567741 C48.5987295,3.00662271 48.8117723,3.09831657 48.9227527,3.2779231 C49.034724,3.45847492 49.0248151,3.70897876 48.8940167,4.03132521 L47.9714918,6.28585978 L45.4516414,11.3914116 C45.0721279,12.1504856 44.4835352,12.5276593 43.6868542,12.5248234 C42.8782825,12.5229328 42.5621864,12.1429232 42.7385661,11.3838493 L43.9682689,6.27451621 L44.5955066,4.30829738 C44.7292776,3.91032713 44.9532203,3.59176187 45.2683255,3.35449219 C45.5834306,3.11722252 45.9371808,2.99906033 46.3295759,3.00000563 M44.7461229,15.8484894 C44.5112803,16.4903464 44.10204,17.0102601 43.5193927,17.407285 C42.9367454,17.80431 42.316444,18.0018772 41.6584886,17.9999866 C40.9886424,17.998096 40.5130119,17.7939117 40.2315973,17.3883791 C39.9501826,16.9819011 39.9254102,16.4648234 40.1562891,15.8352553 C40.3832045,15.217976 40.790463,14.7018435 41.3800466,14.2849673 C41.9696302,13.8690364 42.5938951,13.661071 43.2508597,13.6620163 C43.9088151,13.6648522 44.3785002,13.8756535 44.6618967,14.293475 C44.9452931,14.7131871 44.9730382,15.2302648 44.7461229,15.8484894" id="Fill-18"></path>
                        <path d="M57.8072062,14.9208001 L62.2180812,2.45878242 C62.5580312,1.49651121 63.1917884,1.0167729 64.1174695,1.01956749 C65.0186666,1.02236208 65.2983485,1.50489498 64.9574568,2.46716619 L63.378243,6.93106129 C64.3453584,6.54074993 65.2493806,6.13180796 66.0865429,5.7023723 C66.9896234,5.22449706 67.5894798,5.36515819 67.8851704,6.1271503 C68.2279455,7.02700896 67.8032434,7.7172732 66.6120058,8.19421692 C65.5384794,8.61061114 64.1344199,9.107117 62.4026524,9.68559757 L60.5409316,14.9468829 C60.3347016,15.5300212 60.2414743,15.8914551 60.2650165,16.0293216 C60.2876171,16.1709143 60.4495877,16.2398476 60.7499868,16.2407791 L62.2463319,16.2454367 C62.4864628,16.2454367 62.7105849,16.1066387 62.916815,15.8290425 C63.2737154,15.0568036 63.6842922,14.4522401 64.1447785,14.0162838 C64.6062065,13.5812589 65.047859,13.4964897 65.4706777,13.763839 C65.7484762,13.9296514 65.8530038,14.2556872 65.7823771,14.7438093 C65.7117503,15.2309998 65.5544881,15.7349579 65.3115322,16.2538205 C64.7615853,17.2291332 64.2003382,17.9305758 63.6277908,18.3590799 C63.0543017,18.7885155 62.3649848,19.0027676 61.5588983,18.999973 L59.3421605,18.9943838 C58.1895322,18.9906577 57.5058654,18.7046778 57.2930435,18.1327179 C57.0792799,17.5616896 57.2516092,16.4913608 57.8072062,14.9208001 M57.6518273,9.13972058 L55.5791681,9.13413139 L53.5291094,14.9273208 C54.1214323,14.8155371 54.8389999,14.6711499 55.6836957,14.4969536 C56.6762367,14.309716 57.0434957,14.7158633 56.7854727,15.7163273 C56.5528753,16.5779932 55.9944533,17.102445 55.1102066,17.2896827 C53.4980336,17.6268968 51.5214268,18.027455 49.1813276,18.4894942 C48.7048326,18.5770581 48.3780662,18.5314131 48.2010285,18.3544222 C48.0230492,18.1755683 47.9637227,17.8523272 48.0211658,17.3846988 C48.1322852,16.358152 48.7010658,15.7694246 49.7275077,15.6194481 C49.8216767,15.5961598 49.9629301,15.5663509 50.1550349,15.5365419 C50.3461979,15.5058014 50.4865097,15.4834446 50.5750285,15.4713347 L55.1808333,2.45878242 C55.5264335,1.48346978 56.1611324,0.998142282 57.0868135,1.00000534 C57.9993109,1.00279994 58.2837012,1.49185355 57.9399844,2.46623466 L56.5604089,6.36096451 L58.6330681,6.36655369 C59.510723,6.36934828 59.7856964,6.83231904 59.4589301,7.75732902 C59.131222,8.68140748 58.5294822,9.14251517 57.6518273,9.13972058" id="Fill-19"></path>
                        <path d="M79.9342785,6.92408384 L86.0280486,6.94133651 C86.9153541,6.94421195 87.1942215,7.42153583 86.8684067,8.37234966 C86.5369582,9.33754072 85.9294591,9.81678156 85.0430925,9.8148646 L78.9493224,9.79665345 L78.3915875,11.4193629 L78.8723287,10.9123261 C79.1296003,10.6525776 79.3615204,10.5548125 79.566211,10.6199892 C81.0150072,11.1845349 82.2807086,11.7644163 83.3614373,12.3529241 C83.7210543,12.5637901 83.8769196,12.8235386 83.8309111,13.1369621 C83.7839638,13.4503856 83.5492268,13.8347368 83.1295173,14.2900156 C82.722014,14.7452944 82.3877486,15.0280465 82.1285991,15.1373134 C81.8685106,15.2484973 81.5586579,15.1976977 81.1990409,14.9877903 C80.3708891,14.4635008 79.2366404,13.8539064 77.7962947,13.1590072 L76.3146354,17.4788842 C75.9653468,18.4939163 75.3249845,19.0019116 74.3897927,18.9999946 C73.4555398,18.9971191 73.1625882,18.4862484 73.5109377,17.4702578 L76.1465637,9.78802711 L70.9692065,9.77364989 C70.0828399,9.77077444 69.8039725,9.28865816 70.134482,8.3234671 C70.4612358,7.37265327 71.066857,6.89820483 71.9532236,6.90108028 L77.1315198,6.9154575 L78.9812466,1.52112257 C79.3295962,0.505131987 79.9708974,-0.00286330662 80.9060893,1.21384344e-05 C81.8403422,0.00288758349 82.1332938,0.513758322 81.7849442,1.52974891 L81.5502073,2.21410483 L85.7200738,2.22656509 C86.559493,2.22944054 86.8195814,2.69238719 86.5022171,3.61732202 C86.1848528,4.54321533 85.6074001,5.00328654 84.7679809,5.00136957 L80.5981144,4.98890931 L79.9342785,6.92408384 Z" id="Fill-20"></path>
                        <path d="M94.3296404,2.00002233 L96.2828709,2.00474941 C96.5989949,2.00569483 96.8130476,2.09645473 96.9230469,2.27608369 C97.0340371,2.45665808 97.0251183,2.70719322 96.8952993,3.02863453 L95.9707108,5.28534161 L93.4506372,10.3915314 C93.0720811,11.1497547 92.4844273,11.5269755 91.6876757,11.5250847 C90.8780414,11.5231939 90.5609264,11.1431368 90.7393036,10.3839681 L91.9681244,5.27399663 L92.5964085,3.30753214 C92.7292005,2.90951216 92.953163,2.5909071 93.269287,2.35266236 C93.5844201,2.11630845 93.9372106,1.9981315 94.3296404,2.00002233 M92.7460472,14.8472752 C92.5101929,15.4911032 92.1019073,16.0101364 91.5192084,16.407211 C90.9365095,16.8042855 90.3151622,17.0018774 89.6581395,16.9999866 C88.988234,16.9980957 88.5125614,16.793886 88.2311218,16.3892481 C87.9506732,15.9827194 87.9249076,15.4646316 88.156798,14.8349848 C88.3817515,14.2185738 88.7900371,13.7014315 89.3806638,13.2854486 C89.9693086,12.8685203 90.5926379,12.6605289 91.2516426,12.6633651 C91.9086653,12.6652559 92.3783919,12.8751382 92.6618135,13.2939573 C92.9452351,13.7127764 92.9729826,14.2308642 92.7460472,14.8472752" id="Fill-21"></path>
                    </g>
                </g>
            </g>
        </g>
    </g>
</svg>