<?xml version="1.0" encoding="UTF-8"?>
<svg width="64px" height="64px" viewBox="0 0 64 64" version="1.1" xmlns="http://www.w3.org/2000/svg" xmlns:xlink="http://www.w3.org/1999/xlink">
    <!-- Generator: Sketch 50.2 (55047) - http://www.bohemiancoding.com/sketch -->
    <title>pic/icon/bank/account</title>
    <desc>Created with Sketch.</desc>
    <defs>
        <rect id="path-1" x="0" y="0" width="64" height="64"></rect>
        <path d="M35.9254807,15.9673856 C36.2928794,15.9673856 36.5907614,15.6695036 36.5907614,15.3021049 L36.5907614,13.306263 L39.2518841,13.306263 C39.6192827,13.306263 39.9171647,13.008381 39.9171647,12.6409823 L39.9171647,5.98817563 C39.9171647,5.68866944 39.7173856,5.42619543 39.4289241,5.34660865 L20.1357848,0.0243633264 C20.0198155,-0.00812109771 19.8973493,-0.00812109771 19.7817048,0.0243633264 L0.488565489,5.34660865 C0.20010395,5.42619543 0.000324844075,5.68866944 0.000324844075,5.98817563 L0.000324844075,12.6409823 C0.000324844075,13.008381 0.298206902,13.306263 0.665605489,13.306263 L3.32672815,13.306263 L3.32672815,15.3021049 C3.32672815,15.6695036 3.62461023,15.9673856 3.99200881,15.9673856 L4.65728948,15.9673856 L4.65728948,26.6118763 L3.99200881,26.6118763 C3.62461023,26.6118763 3.32672815,26.9094335 3.32672815,27.2771569 L3.32672815,29.2729989 L1.99616682,29.2729989 C1.62876823,29.2729989 1.33088615,29.5705562 1.33088615,29.9382796 L1.33088615,31.9341216 L0.665605489,31.9341216 C0.298206902,31.9341216 0.000324844075,32.2316788 0.000324844075,32.5994022 L0.000324844075,35.2605249 C0.000324844075,35.6279236 0.298206902,35.9258056 0.665605489,35.9258056 L15.9670608,35.9258056 L15.9670608,39.2522089 C15.9670608,39.6196076 16.2649429,39.9174896 16.6323415,39.9174896 L39.2518841,39.9174896 C39.6192827,39.9174896 39.9171647,39.6196076 39.9171647,39.2522089 L39.9171647,24.6160343 C39.9171647,24.2483109 39.6192827,23.9507536 39.2518841,23.9507536 L35.2602001,23.9507536 L35.2602001,15.9673856 L35.9254807,15.9673856 Z M35.2602001,14.6368243 L31.2685161,14.6368243 L31.2685161,13.306263 L35.2602001,13.306263 L35.2602001,14.6368243 Z M26.6115514,23.9507536 L26.6115514,15.9673856 L27.2768321,15.9673856 C27.6442308,15.9673856 27.9421128,15.6695036 27.9421128,15.3021049 L27.9421128,13.306263 L29.9379548,13.306263 L29.9379548,15.3021049 C29.9379548,15.6695036 30.2358368,15.9673856 30.6032354,15.9673856 L31.2685161,15.9673856 L31.2685161,23.9507536 L26.6115514,23.9507536 Z M17.2976221,23.9507536 L17.2976221,15.9673856 L17.9629028,15.9673856 C18.3303015,15.9673856 18.6281835,15.6695036 18.6281835,15.3021049 L18.6281835,13.306263 L21.2893061,13.306263 L21.2893061,15.3021049 C21.2893061,15.6695036 21.5871882,15.9673856 21.9545868,15.9673856 L22.6198674,15.9673856 L22.6198674,23.9507536 L17.2976221,23.9507536 Z M38.5866034,29.2729989 L17.2976221,29.2729989 L17.2976221,27.9424376 L38.5866034,27.9424376 L38.5866034,29.2729989 Z M9.9795348,29.2729989 L9.9795348,27.2771569 C9.9795348,26.9094335 9.68165281,26.6118763 9.31425414,26.6118763 L8.64897347,26.6118763 L8.64897347,15.9673856 L9.31425414,15.9673856 C9.68165281,15.9673856 9.9795348,15.6695036 9.9795348,15.3021049 L9.9795348,13.306263 L11.9753768,13.306263 L11.9753768,15.3021049 C11.9753768,15.6695036 12.2732589,15.9673856 12.6406575,15.9673856 L13.3059381,15.9673856 L13.3059381,26.6118763 L12.6406575,26.6118763 C12.2732589,26.6118763 11.9753768,26.9094335 11.9753768,27.2771569 L11.9753768,29.2729989 L9.9795348,29.2729989 Z M15.9670608,26.6118763 L14.6364995,26.6118763 L14.6364995,15.9673856 L15.9670608,15.9673856 L15.9670608,26.6118763 Z M16.6323415,14.6368243 L13.3059381,14.6368243 L13.3059381,13.306263 L17.2976221,13.306263 L17.2976221,14.6368243 L16.6323415,14.6368243 Z M13.3059381,27.9424376 L15.9670608,27.9424376 L15.9670608,29.2729989 L13.3059381,29.2729989 L13.3059381,27.9424376 Z M25.9462708,14.6368243 L22.6198674,14.6368243 L22.6198674,13.306263 L26.6115514,13.306263 L26.6115514,14.6368243 L25.9462708,14.6368243 Z M23.9504288,15.9673856 L25.2809901,15.9673856 L25.2809901,23.9507536 L23.9504288,23.9507536 L23.9504288,15.9673856 Z M1.33088615,6.49493239 L19.9587448,1.3555743 L38.5866034,6.49493239 L38.5866034,11.9757016 L1.33088615,11.9757016 L1.33088615,6.49493239 Z M8.64897347,13.306263 L8.64897347,14.6368243 L4.65728948,14.6368243 L4.65728948,13.306263 L8.64897347,13.306263 Z M5.98785081,15.9673856 L7.31841214,15.9673856 L7.31841214,26.6118763 L5.98785081,26.6118763 L5.98785081,15.9673856 Z M4.65728948,27.9424376 L8.64897347,27.9424376 L8.64897347,29.2729989 L4.65728948,29.2729989 L4.65728948,27.9424376 Z M2.66144748,30.6035602 L15.9670608,30.6035602 L15.9670608,31.9341216 L2.66144748,31.9341216 L2.66144748,30.6035602 Z M1.33088615,34.5952442 L1.33088615,33.2646829 L15.9670608,33.2646829 L15.9670608,34.5952442 L1.33088615,34.5952442 Z M17.2976221,38.5869282 L17.2976221,30.6035602 L38.5866034,30.6035602 L38.5866034,38.5869282 L17.2976221,38.5869282 Z M38.5866034,26.6118763 L17.2976221,26.6118763 L17.2976221,25.2813149 L38.5866034,25.2813149 L38.5866034,26.6118763 Z M33.9296388,23.9507536 L32.5990774,23.9507536 L32.5990774,15.9673856 L33.9296388,15.9673856 L33.9296388,23.9507536 Z M37.2560421,9.97985963 C37.2560421,10.3472583 36.9581601,10.6451403 36.5907614,10.6451403 L3.32672815,10.6451403 C2.95932956,10.6451403 2.66144748,10.3472583 2.66144748,9.97985963 L2.66144748,8.01455301 C2.66144748,7.71504682 2.86122661,7.45289763 3.14968815,7.37298595 L19.7817048,2.78261439 C19.8973493,2.7501299 20.0198155,2.7501299 20.1357848,2.78261439 L36.7678014,7.37298595 C37.056263,7.45289763 37.2560421,7.71504682 37.2560421,8.01455301 L37.2560421,9.97985963 Z M35.9254807,9.31457896 L35.9254807,8.52130977 L19.9587448,4.11674894 L3.99200881,8.52130977 L3.99200881,9.31457896 L35.9254807,9.31457896 Z M17.9629028,6.6534563 C17.9629028,5.55093555 18.8565489,4.6576143 19.9587448,4.6576143 C21.0609407,4.6576143 21.9545868,5.55093555 21.9545868,6.6534563 C21.9545868,7.75565231 21.0609407,8.6492983 19.9587448,8.6492983 C18.8565489,8.6492983 17.9629028,7.75565231 17.9629028,6.6534563 Z M20.6240254,6.6534563 C20.6240254,6.28573289 20.3261435,5.98817563 19.9587448,5.98817563 C19.5913462,5.98817563 19.2934641,6.28573289 19.2934641,6.6534563 C19.2934641,7.02085497 19.5913462,7.31873696 19.9587448,7.31873696 C20.3261435,7.31873696 20.6240254,7.02085497 20.6240254,6.6534563 Z M35.2602001,33.2646829 C36.1531965,33.2591606 36.9409434,33.847778 37.1891242,34.7056913 C37.4373051,35.5636045 37.085499,36.4816138 36.3276378,36.954262 C35.5697765,37.4265853 34.5903716,37.3379028 33.9296388,36.7372661 C33.1321465,37.4619933 31.9032615,37.423012 31.1535213,36.6489085 C30.4037812,35.87513 30.4037812,34.6455951 31.1535213,33.8718165 C31.9032615,33.0977131 33.1321465,33.0587318 33.9296388,33.783459 C34.2931393,33.4511435 34.7674116,33.2663072 35.2602001,33.2646829 Z M32.5990774,35.9258056 C32.9664761,35.9258056 33.2643581,35.6279236 33.2643581,35.2605249 C33.2643581,34.8928015 32.9664761,34.5952442 32.5990774,34.5952442 C32.2316788,34.5952442 31.9337968,34.8928015 31.9337968,35.2605249 C31.9337968,35.6279236 32.2316788,35.9258056 32.5990774,35.9258056 Z M35.2602001,35.9258056 C35.6275988,35.9258056 35.9254807,35.6279236 35.9254807,35.2605249 C35.9254807,34.8928015 35.6275988,34.5952442 35.2602001,34.5952442 C34.8928015,34.5952442 34.5949194,34.8928015 34.5949194,35.2605249 C34.5949194,35.6279236 34.8928015,35.9258056 35.2602001,35.9258056 Z M20.6240254,34.5952442 C20.9914241,34.5952442 21.2893061,34.8928015 21.2893061,35.2605249 C21.2893061,35.6279236 20.9914241,35.9258056 20.6240254,35.9258056 L19.2934641,35.9258056 C18.9260655,35.9258056 18.6281835,35.6279236 18.6281835,35.2605249 C18.6281835,34.8928015 18.9260655,34.5952442 19.2934641,34.5952442 L20.6240254,34.5952442 Z M28.6073934,34.5952442 C28.9747921,34.5952442 29.2726741,34.8928015 29.2726741,35.2605249 C29.2726741,35.6279236 28.9747921,35.9258056 28.6073934,35.9258056 L23.2851481,35.9258056 C22.9177495,35.9258056 22.6198674,35.6279236 22.6198674,35.2605249 C22.6198674,34.8928015 22.9177495,34.5952442 23.2851481,34.5952442 L28.6073934,34.5952442 Z" id="path-3"></path>
    </defs>
    <g id="pic/icon/bank/account" stroke="none" stroke-width="1" fill="none" fill-rule="evenodd">
        <g id="pic/icon/bankcard">
            <g id="Bitmap">
                <mask id="mask-2" fill="white">
                    <use xlink:href="#path-1"></use>
                </mask>
                <g id="Mask"></g>
                <g id="merchant" mask="url(#mask-2)">
                    <g transform="translate(12.000000, 12.000000)" id="✱-/-Color-/-blue-/-bit">
                        <g>
                            <mask id="mask-4" fill="white">
                                <use xlink:href="#path-3"></use>
                            </mask>
                            <use id="Mask" fill="#757575" fill-rule="nonzero" xlink:href="#path-3"></use>
                            <g mask="url(#mask-4)" fill="#33A7E3" id="Rectangle-6">
                                <g transform="translate(-17.000000, -32.000000)">
                                    <rect x="0" y="0" width="74" height="74"></rect>
                                </g>
                            </g>
                        </g>
                    </g>
                </g>
            </g>
        </g>
    </g>
</svg>