<svg xmlns="http://www.w3.org/2000/svg" width="29" height="30" viewBox="0 0 29 30">
    <g fill="none" fill-rule="evenodd">
        <ellipse cx="14.412" cy="15" fill="#F2D16F" rx="14.412" ry="15"/>
        <path fill="#495059" fill-rule="nonzero" d="M4.118 14.15v8.275c0 1.26 1.014 2.28 2.265 2.28h16.646a2.273 2.273 0 0 0 2.265-2.28V14.15c0-2.584-1.115-4.983-3.139-6.755-1.98-1.733-4.626-2.688-7.45-2.688-2.822 0-5.468.955-7.449 2.688-2.024 1.772-3.138 4.171-3.138 6.755z"/>
        <path fill="#41464F" fill-rule="nonzero" d="M22.941 14.706H6.471v7.957c0 1.128.898 2.043 2.007 2.043h12.456c1.108 0 2.007-.915 2.007-2.043v-7.957z"/>
        <path fill="#EDC2BB" fill-rule="nonzero" d="M8.824 15.882a2.941 2.941 0 1 1-5.883 0 2.941 2.941 0 0 1 5.883 0zM26.47 15.882a2.941 2.941 0 1 1-5.882 0 2.941 2.941 0 0 1 5.883 0z"/>
        <path fill="#F6D0CA" fill-rule="nonzero" d="M24.118 14.015c0-4.93-4.346-8.72-9.706-8.72-5.36 0-9.706 3.79-9.706 8.72 0 4.93 4.345 8.926 9.706 8.926 5.36 0 9.706-3.996 9.706-8.926z"/>
        <path fill="#EDC2BB" fill-rule="nonzero" d="M14.457 5.882c-5.385 0-9.751 3.695-9.751 8.498 0 .11.003.218.007.326l.031-.004c1.874-.338 3.756-1.226 5.299-2.5.834-.69 1.487-1.423 1.898-2.115.858.814 2.066 1.513 3.564 2.057 2.022.735 4.388 1.124 6.843 1.124.59 0 1.184-.024 1.77-.07-.65-4.214-4.727-7.316-9.66-7.316z"/>
        <path fill="#495059" fill-rule="nonzero" d="M21.946 7.327c-1.963-1.69-4.585-2.621-7.383-2.621s-5.42.93-7.383 2.62C5.424 8.84 4.359 10.82 4.12 12.98a.5.5 0 0 0 .587.542c3.908-.702 6.977-3.77 7.097-5.303 1.631 2.56 6.97 4.249 12.504 3.783a.434.434 0 0 0 .378-.561c-.478-1.556-1.41-2.969-2.74-4.113z"/>
        <path fill="#7BD0A7" fill-rule="nonzero" d="M22.394 13.53h-.67c-.303 0-.548-.227-.548-.507v-1.929c0-.28.245-.506.548-.506h.67c.302 0 .547.227.547.506v1.93c0 .279-.245.505-.547.505z"/>
        <path fill="#EB8D9A" fill-rule="nonzero" d="M11.765 15.588c0-.812-.79-1.47-1.765-1.47-.975 0-1.765.658-1.765 1.47 0 .812.79 1.47 1.765 1.47.975 0 1.765-.658 1.765-1.47zM21.176 15.588c0-.812-.79-1.47-1.764-1.47-.975 0-1.765.658-1.765 1.47 0 .812.79 1.47 1.765 1.47.974 0 1.764-.658 1.764-1.47z"/>
        <g fill="#495059" fill-rule="nonzero">
            <path d="M12.014 14.942c-.192 0-.349-.145-.349-.325 0-.238-.208-.432-.464-.432s-.465.194-.465.432c0 .18-.156.325-.349.325-.192 0-.348-.145-.348-.325 0-.596.521-1.082 1.162-1.082.64 0 1.162.486 1.162 1.082 0 .18-.156.325-.349.325zM19.285 14.942c-.192 0-.349-.145-.349-.325 0-.238-.208-.432-.464-.432s-.465.194-.465.432c0 .18-.156.325-.349.325-.192 0-.348-.145-.348-.325 0-.596.521-1.082 1.162-1.082.64 0 1.162.486 1.162 1.082 0 .18-.156.325-.349.325zM14.836 17.054c-.431 0-.841-.174-1.125-.477a.31.31 0 0 1 .033-.458.367.367 0 0 1 .492.031c.152.162.37.255.6.255.23 0 .449-.093.6-.255a.367.367 0 0 1 .492-.031.31.31 0 0 1 .034.458 1.542 1.542 0 0 1-1.126.477z"/>
        </g>
        <path fill="#41464F" fill-rule="nonzero" d="M19.638 10.588c-.015 0-.03 0-.046-.002a10.814 10.814 0 0 1-3.598-1.057c-.878-.443-1.562-.964-1.83-1.394-.098-.158-.036-.357.138-.446a.384.384 0 0 1 .494.125c.352.566 2.204 1.81 4.888 2.122.198.023.339.187.313.367-.023.165-.18.285-.359.285z"/>
        <path fill="#68BF97" fill-rule="nonzero" d="M22.059 12.941c-.163 0-.294-.152-.294-.34v-1.084c0-.188.131-.34.294-.34.162 0 .294.152.294.34v1.084c0 .188-.132.34-.294.34z"/>
    </g>
</svg>
