<?xml version="1.0" encoding="UTF-8"?>
<svg width="24px" height="24px" viewBox="0 0 24 24" version="1.1" xmlns="http://www.w3.org/2000/svg" xmlns:xlink="http://www.w3.org/1999/xlink">
    <!-- Generator: Sketch 52.5 (67469) - http://www.bohemiancoding.com/sketch -->
    <title>ic_perm_identity_24px</title>
    <desc>Created with Sketch.</desc>
    <g id="Page-1" stroke="none" stroke-width="1" fill="none" fill-rule="evenodd">
        <g id="ic_perm_identity_24px" transform="translate(-6.000000, -6.000000)">
            <path d="M18,8.85 C19.74,8.85 21.15,10.26 21.15,12 C21.15,13.74 19.74,15.15 18,15.15 C16.26,15.15 14.85,13.74 14.85,12 C14.85,10.26 16.26,8.85 18,8.85 Z M18,22.35 C22.455,22.35 27.15,24.54 27.15,25.5 L27.15,27.15 L8.85,27.15 L8.85,25.5 C8.85,24.54 13.545,22.35 18,22.35 Z M18,6 C14.685,6 12,8.685 12,12 C12,15.315 14.685,18 18,18 C21.315,18 24,15.315 24,12 C24,8.685 21.315,6 18,6 Z M18,19.5 C13.995,19.5 6,21.51 6,25.5 L6,30 L30,30 L30,25.5 C30,21.51 22.005,19.5 18,19.5 Z" id="Shape" fill="#FFFFFF" fill-rule="nonzero"></path>
            <polygon id="Path" points="0 0 36 0 36 36 0 36"></polygon>
        </g>
    </g>
</svg>