<svg xmlns="http://www.w3.org/2000/svg" width="29" height="30" viewBox="0 0 29 30">
    <g fill="none" fill-rule="evenodd">
        <ellipse cx="14.297" cy="15.066" fill="#7BD0A7" rx="14.297" ry="14.766"/>
        <path fill="#EDC2BB" fill-rule="nonzero" d="M8.623 16.72a2.906 2.906 0 1 1-5.81 0 2.906 2.906 0 0 1 5.81 0zM26.25 16.72a2.906 2.906 0 1 1-5.811 0 2.906 2.906 0 0 1 5.811 0z"/>
        <path fill="#F6D0CA" fill-rule="nonzero" d="M24.232 15.313c0-4.81-4.343-8.51-9.7-8.51-5.358 0-9.702 3.7-9.702 8.51s4.344 8.71 9.701 8.71c5.358 0 9.701-3.9 9.701-8.71z"/>
        <path fill="#495059" fill-rule="nonzero" d="M21.841 8.736c-1.943-1.689-4.539-2.62-7.31-2.62-2.77 0-5.367.931-7.31 2.62-1.81 1.574-2.878 3.656-3.052 5.92a.448.448 0 0 0 .577.46c1.749-.52 4.381-1.725 5.277-3.998h9.017c.895 2.273 3.528 3.478 5.277 3.997.3.09.6-.147.576-.46-.173-2.263-1.241-4.345-3.052-5.919z"/>
        <path fill="#EB8D9A" fill-rule="nonzero" d="M11.654 16.948c0-.74-.753-1.34-1.682-1.34-.929 0-1.682.6-1.682 1.34 0 .74.753 1.34 1.682 1.34.93 0 1.682-.6 1.682-1.34zM20.773 16.948c0-.74-.754-1.34-1.683-1.34s-1.682.6-1.682 1.34c0 .74.753 1.34 1.682 1.34.93 0 1.683-.6 1.683-1.34z"/>
        <g fill="#495059" fill-rule="nonzero">
            <path d="M11.753 15.833a.343.343 0 0 1-.343-.343.458.458 0 0 0-.915 0 .343.343 0 1 1-.686 0c0-.63.513-1.144 1.144-1.144.63 0 1.144.513 1.144 1.144 0 .19-.154.343-.344.343zM18.91 15.833a.343.343 0 0 1-.343-.343.458.458 0 0 0-.914 0 .343.343 0 0 1-.687 0c0-.63.513-1.144 1.144-1.144.63 0 1.144.513 1.144 1.144 0 .19-.154.343-.343.343zM14.531 18.987c-.629 0-1.138-.51-1.138-1.14v-.827c0-.172.139-.31.31-.31h1.656a.31.31 0 0 1 .311.31v.828c0 .629-.51 1.139-1.139 1.139zM10.023 11.118c1.48 2.201 11.539 3.698 14.89-1.593a.704.704 0 0 0-.55-1.074c-1.63-.117-3.47-1.05-6.472-1.855l-7.868 4.522z"/>
        </g>
        <path fill="#41464F" fill-rule="nonzero" d="M17.105 11.595c-.962 0-1.822-.168-2.442-.47a.343.343 0 1 1 .301-.617c1.339.653 4.116.567 6.27-.709a.344.344 0 0 1 .35.59c-1.419.841-3.06 1.206-4.479 1.206zM16.47 9.415c-1.072 0-2.278-.3-3.212-.815a.343.343 0 1 1 .332-.601c.747.412 2.076.844 3.361.704a.343.343 0 1 1 .075.683c-.18.02-.367.029-.557.029z"/>
        <path fill="#495059" fill-rule="nonzero" d="M20.887 8.186c-.27 0-.524-.033-.74-.101a.343.343 0 0 1 .207-.655c.606.191 1.7-.02 2.387-.463a.343.343 0 1 1 .372.577c-.63.405-1.494.642-2.226.642z"/>
    </g>
</svg>
