<?xml version="1.0" encoding="UTF-8"?>
<svg width="162px" height="39px" viewBox="0 0 162 39" version="1.1" xmlns="http://www.w3.org/2000/svg" xmlns:xlink="http://www.w3.org/1999/xlink">
    <!-- Generator: Sketch 52.5 (67469) - http://www.bohemiancoding.com/sketch -->
    <title>Group</title>
    <desc>Created with Sketch.</desc>
    <defs>
        <path d="M111.898709,19.7954024 L110.948562,20.473993 C110.640821,19.9462003 110.231417,19.3583151 109.71925,18.7239434 L110.670496,18.1207517 C111.196952,18.7545565 111.606356,19.3123955 111.898709,19.7954024 Z M108.081632,20.7154965 C108.052507,19.8708013 108.052507,19.0107996 108.052507,18.1060121 L109.324683,18.1060121 C109.324683,19.0261062 109.324683,19.9014144 109.353808,20.7154965 L111.912997,20.7154965 L111.912997,22.0738116 L109.383483,22.0738116 C109.470859,24.4270529 109.631873,26.3273335 109.880264,27.8064004 C110.158329,29.3903455 110.406719,30.1896879 110.640821,30.2049945 C110.801835,30.1749483 111.006263,29.29964 111.269491,27.5796366 L112.337239,28.1981349 C111.927835,30.5819893 111.357416,31.7889396 110.640821,31.8042462 C109.646161,31.7435868 108.944404,30.0995493 108.505874,26.9010459 C108.315185,25.497945 108.183846,23.8839536 108.125595,22.0738116 L104.060128,22.0738116 L104.060128,20.7154965 L108.081632,20.7154965 Z M107.672777,24.019445 L107.672777,25.3017943 L106.502815,25.3017943 L106.502815,28.5910031 C107.013884,28.4849911 107.526051,28.3795459 108.023381,28.2587942 L108.023381,29.5411435 C106.751205,29.8427393 105.390554,30.0842428 103.957914,30.2951331 L103.635886,29.0133507 C104.162891,28.9526914 104.674509,28.892599 105.200964,28.8172 L105.200964,25.3017943 L103.972202,25.3017943 L103.972202,24.019445 L107.672777,24.019445 Z M100.521116,29.7826469 L102.057069,29.7826469 L102.057069,27.7310014 L100.521116,27.7310014 L100.521116,29.7826469 Z M99.4099539,25.4525922 L103.183068,25.4525922 L103.183068,24.1855495 L99.4099539,24.1855495 L99.4099539,25.4525922 Z M99.4099539,23.355594 L103.183068,23.355594 L103.183068,22.1032909 L99.4099539,22.1032909 L99.4099539,23.355594 Z M103.328695,31.7435868 L102.057069,31.7435868 L102.057069,31.0797358 L100.521116,31.0797358 L100.521116,31.9550441 L99.2489398,31.9550441 L99.2489398,26.4633918 L103.328695,26.4633918 L103.328695,31.7435868 Z M102.027394,19.8554948 L103.679849,19.8554948 L103.679849,21.1831968 L99,21.1831968 L99,19.8554948 L100.711255,19.8554948 C100.535953,19.3430086 100.345814,18.8446951 100.140837,18.3775617 L101.48665,18 C101.720753,18.6791576 101.896055,19.2976558 102.027394,19.8554948 Z M115.044968,31.8645086 L113.977219,30.8837552 C114.854828,29.5860994 115.308196,27.9420618 115.337321,25.9505088 L115.337321,18.5585759 L126.553901,18.5585759 L126.553901,29.9183083 C126.553901,31.0498597 125.983482,31.6230052 124.87232,31.6230052 L123.19074,31.6230052 L122.824749,30.2199042 C123.395168,30.265257 123.921623,30.2953032 124.418953,30.2953032 C124.886608,30.2953032 125.135548,29.9937073 125.135548,29.4052553 L125.135548,27.1574591 L121.50861,27.1574591 L121.50861,31.4569007 L120.104546,31.4569007 L120.104546,27.1574591 L116.667748,27.1574591 C116.492446,29.0583066 115.951702,30.6275121 115.044968,31.8645086 Z M121.50861,25.8297571 L125.135548,25.8297571 L125.135548,23.5218685 L121.50861,23.5218685 L121.50861,25.8297571 Z M121.50861,22.2094731 L125.135548,22.2094731 L125.135548,19.9463704 L121.50861,19.9463704 L121.50861,22.2094731 Z M116.740836,25.8297571 L120.104546,25.8297571 L120.104546,23.5218685 L116.740836,23.5218685 L116.740836,25.8297571 Z M116.740836,22.2089061 L120.104546,22.2089061 L120.104546,19.9458035 L116.740836,19.9458035 L116.740836,22.2089061 Z M137.246223,19.1016752 L137.246223,18.0908756 L138.430473,18.0908756 L138.430473,19.1016752 L139.308082,19.1016752 L139.308082,18.0908756 L140.478044,18.0908756 L140.478044,19.1016752 L142.203587,19.1016752 L142.203587,23.8234644 L135.549805,23.8234644 L135.549805,19.1016752 L137.246223,19.1016752 Z M135.183814,25.573514 L135.183814,24.4567023 L142.539903,24.4567023 L142.539903,25.573514 L135.183814,25.573514 Z M141.881559,26.2220584 L141.881559,29.2697639 L141.0045,29.2697639 L140.726434,30.3406559 L142.642117,30.3406559 L142.642117,31.5322997 L134.876624,31.5322997 L134.876624,30.3406559 L136.968158,30.3406559 L136.646679,29.2697639 L135.798195,29.2697639 L135.798195,26.2220584 L141.881559,26.2220584 Z M136.982446,28.2130446 L140.697309,28.2130446 L140.697309,27.2175515 L136.982446,27.2175515 L136.982446,28.2130446 Z M139.513059,30.3406559 L139.790575,29.2697639 L137.874892,29.2697639 L138.196371,30.3406559 L139.513059,30.3406559 Z M134.496894,22.5411151 L135.008512,22.5411151 L135.008512,25.0604609 L134.33588,25.0604609 L134.33588,30.7329573 C134.33588,31.4722073 133.926476,31.8492021 133.121955,31.8492021 L132.15697,31.8492021 L131.849779,30.7029111 C132.171258,30.7329573 132.478998,30.7482638 132.756514,30.7482638 C133.019741,30.7482638 133.165918,30.596899 133.165918,30.3106097 L133.165918,29.2544573 C132.65375,29.4358684 132.113007,29.6167125 131.543138,29.7822501 L131.309036,28.9528615 C131.206273,30.1598118 130.899082,31.1553049 130.373176,31.9399076 L129.451604,31.0651662 C129.934097,30.3559625 130.182487,29.450608 130.197324,28.3644094 L130.197324,25.1058137 L129.510404,25.1058137 L129.510404,22.5411151 L130.051148,22.5411151 L130.051148,18.5132232 L134.496894,18.5132232 L134.496894,22.5411151 Z M133.165918,28.1382125 L133.165918,25.6035602 L131.338161,25.6035602 L131.338161,26.4029026 C131.90858,26.5083477 132.46416,26.6597126 133.004904,26.8405567 L132.639462,27.7759574 C132.200933,27.6098529 131.77724,27.4743615 131.338161,27.3689164 L131.338161,28.2583973 C131.338161,28.4097622 131.323324,28.5452536 131.323324,28.6813118 C131.995956,28.5152073 132.610337,28.3343632 133.165918,28.1382125 Z M130.636404,24.5479747 L133.883062,24.5479747 L133.883062,23.5972675 L130.636404,23.5972675 L130.636404,24.5479747 Z M131.791528,22.5411151 L131.791528,20.5495621 L133.370895,20.5495621 L133.370895,19.5994218 L131.191985,19.5994218 L131.191985,22.5411151 L131.791528,22.5411151 Z M154.226886,32 L153.247613,31.1099521 C154.183472,30.189858 154.88523,28.9676011 155.353435,27.4290088 L156.523397,27.8967091 C156.406346,28.2436577 156.289294,28.5752998 156.172243,28.8774625 C156.874001,29.6014059 157.488382,30.3253494 158,31.0498597 L157.108103,31.9852604 C156.727824,31.3514555 156.245332,30.7029111 155.645238,30.008447 C155.221546,30.7930497 154.753341,31.4569007 154.226886,32 Z M132.683425,22.5411151 L133.370895,22.5411151 L133.370895,21.5303155 L132.683425,21.5303155 L132.683425,22.5411151 Z M140.214816,22.8580175 L141.150676,22.8580175 L141.150676,21.9526631 L140.214816,21.9526631 L140.214816,22.8580175 Z M140.214816,21.0626152 L141.150676,21.0626152 L141.150676,20.142521 L140.214816,20.142521 L140.214816,21.0626152 Z M138.430473,22.8580175 L139.308082,22.8580175 L139.308082,21.9526631 L138.430473,21.9526631 L138.430473,22.8580175 Z M138.430473,21.0626152 L139.308082,21.0626152 L139.308082,20.142521 L138.430473,20.142521 L138.430473,21.0626152 Z M136.602716,22.8580175 L137.524288,22.8580175 L137.524288,21.9526631 L136.602716,21.9526631 L136.602716,22.8580175 Z M136.602716,21.0626152 L137.524288,21.0626152 L137.524288,20.142521 L136.602716,20.142521 L136.602716,21.0626152 Z M150.600498,27.2175515 L150.600498,23.2350123 L153.730105,23.2350123 L153.730105,27.2175515 L150.600498,27.2175515 Z M150.629623,22.6012075 L149.927865,21.4849627 C151.419306,20.6402676 152.560143,19.5240228 153.364664,18.150968 L154.490663,18.150968 C155.162746,19.3879645 156.332708,20.4741631 158,21.4095638 L157.283405,22.5258086 C156.859163,22.2843051 156.479434,22.0433686 156.142568,21.7865586 L156.142568,22.4050568 L151.667697,22.4050568 L151.667697,21.9073103 C151.316543,22.1635534 150.980776,22.3903172 150.629623,22.6012075 Z M150.805474,32 L149.825102,31.1099521 C150.7758,30.1745514 151.477557,28.9222484 151.945762,27.3689164 L153.100886,27.8360498 C152.998673,28.1529522 152.896459,28.4551149 152.794245,28.7266646 C153.20365,29.118399 153.569091,29.5107004 153.875732,29.9030018 L153.01351,30.77831 C152.808533,30.4761473 152.574431,30.1598118 152.296366,29.8429094 C151.858386,30.7176507 151.360506,31.4268545 150.805474,32 Z M153.919695,19.3879645 C153.481715,20.0824286 152.983835,20.6856203 152.443092,21.2287196 L155.455099,21.2287196 C154.812142,20.6550072 154.300524,20.0518155 153.919695,19.3879645 Z M147.923708,29.8582159 L147.207662,30.0237535 C147.090611,28.8774625 146.97356,27.8666629 146.827383,26.9913546 L147.47089,26.8405567 C147.646192,27.7759574 147.792369,28.7720173 147.923708,29.8582159 Z M146.681207,30.6575583 L145.891523,30.7630035 C145.861849,29.1490122 145.833273,27.8967091 145.78931,27.0066612 L146.491067,26.9312622 C146.578993,27.8360498 146.637244,29.0883528 146.681207,30.6575583 Z M150.059205,25.0451543 C150.059205,28.4245018 149.912478,30.3860087 149.6498,30.9444145 C149.386573,31.5169931 148.859567,31.8038493 148.100109,31.8038493 C147.895132,31.8038493 147.675317,31.7891097 147.441215,31.7738031 L147.178537,30.6275121 C147.426927,30.6575583 147.661029,30.6876045 147.895132,30.6876045 C148.450713,30.6876045 148.772191,30.3860087 148.859567,29.8128632 C148.889242,29.6614983 148.90408,29.4806542 148.918917,29.2697639 L148.318824,29.4959608 C148.187485,28.5906063 148.026471,27.7152981 147.851169,26.8558633 L148.46555,26.6744522 C148.669978,27.5497605 148.816154,28.3496698 148.933205,29.0736132 C148.976619,28.3791491 149.006294,27.4290088 149.006294,26.2521047 L144.897413,26.2521047 L144.897413,18.5585759 L150.059205,18.5585759 L150.059205,19.7802659 L148.348499,19.7802659 L148.348499,20.8211117 L149.6498,20.8211117 L149.6498,21.9373565 L148.348499,21.9373565 L148.348499,22.9481561 L149.6498,22.9481561 L149.6498,24.0649678 L148.348499,24.0649678 L148.348499,25.0451543 L150.059205,25.0451543 Z M145.467282,26.9159557 C145.423868,28.5152073 145.321105,29.933048 145.145803,31.1706114 L144.341282,30.929108 C144.546259,29.7374642 144.677598,28.3644094 144.736399,26.8258171 L145.467282,26.9159557 Z M146.095951,25.0451543 L147.148862,25.0451543 L147.148862,24.0649678 L146.095951,24.0649678 L146.095951,25.0451543 Z M146.095951,22.9481561 L147.148862,22.9481561 L147.148862,21.9373565 L146.095951,21.9373565 L146.095951,22.9481561 Z M146.095951,20.8211117 L147.148862,20.8211117 L147.148862,19.7802659 L146.095951,19.7802659 L146.095951,20.8211117 Z M151.682534,26.161966 L152.647519,26.161966 L152.647519,24.2911647 L151.682534,24.2911647 L151.682534,26.161966 Z M154.212598,27.2175515 L154.212598,23.2350123 L157.327368,23.2350123 L157.327368,27.2175515 L154.212598,27.2175515 Z M155.294634,26.161966 L156.245332,26.161966 L156.245332,24.2911647 L155.294634,24.2911647 L155.294634,26.161966 Z" id="path-1"></path>
        <filter x="-11.9%" y="-35.7%" width="123.7%" height="200.0%" filterUnits="objectBoundingBox" id="filter-2">
            <feOffset dx="0" dy="2" in="SourceAlpha" result="shadowOffsetOuter1"></feOffset>
            <feGaussianBlur stdDeviation="2" in="shadowOffsetOuter1" result="shadowBlurOuter1"></feGaussianBlur>
            <feColorMatrix values="0 0 0 0 0.949019608   0 0 0 0 0.282352941   0 0 0 0 0.360784314  0 0 0 1 0" type="matrix" in="shadowBlurOuter1"></feColorMatrix>
        </filter>
    </defs>
    <g id="Page-1" stroke="none" stroke-width="1" fill="none" fill-rule="evenodd">
        <g id="Group">
            <g id="Combined-Shape">
                <use fill="black" fill-opacity="1" filter="url(#filter-2)" xlink:href="#path-1"></use>
                <use fill="#FFFFFF" fill-rule="evenodd" xlink:href="#path-1"></use>
            </g>
            <path d="M10.2228167,17.6204536 L10.2228167,19.7207399 L2.18851085,19.7207399 L2.18851085,23.6089768 L9.6164018,23.6089768 L9.6164018,25.710403 L2.18851085,25.710403 L2.18851085,30.0654335 L10.6490207,30.0654335 L10.6490207,32.1651498 L0,32.1651498 L0,17.6204536 L10.2228167,17.6204536 Z M25.5051343,17.5544528 C25.2005449,18.0246661 17.3950957,30.0655475 17.3950957,30.0655475 L25.2420044,30.0655475 L25.2420044,32.1652638 L13.1822538,32.1652638 C13.4934767,31.6933406 21.4310436,19.655879 21.4310436,19.655879 L13.8389729,19.655879 L13.8389729,17.5544528 L25.5051343,17.5544528 Z M50.3036322,23.0842757 L50.3036322,32.1619581 L46.2875849,32.1619581 L46.2875849,18.3137476 L49.0299952,19.5420018 C49.912807,18.206026 51.3683132,17 53.162682,17 C54.8050325,17 56.2942591,17.6577287 57.4507039,18.693338 L55.1394728,21.9865413 C54.4993375,21.0774621 53.648035,20.5434138 52.7668816,20.5434138 C51.398164,20.5434138 50.3036322,21.6730657 50.3036322,23.0842757 Z M58.7854246,32.162357 L58.7854246,17.4210262 L62.7998136,17.4210262 L62.7998136,32.162357 L58.7854246,32.162357 Z M73.6141196,32.5380717 C69.4466068,32.5380717 65.7064036,29.3081335 65.7064036,24.7918056 C65.7064036,20.2754777 69.4466068,17.0449695 73.6456289,17.0449695 C75.4704014,17.0449695 77.1746648,17.6719206 79.029841,19.0825607 L77.5649373,21.2837291 C76.3780889,20.4989002 75.1348555,20.1176 73.6456289,20.1176 C71.8811109,20.1176 69.84296,21.4672548 69.84296,24.7918056 C69.84296,28.1157865 71.85126,29.4654413 73.6456289,29.4654413 C75.1348555,29.4654413 76.565486,29.0567831 77.7827381,28.3346494 L78.8839034,30.8681019 C77.3327639,31.9971839 75.6528234,32.5380717 73.6141196,32.5380717 Z M88.0994744,29.4654413 C89.7733342,29.4654413 90.9518906,29.0704621 92.535645,28.1157865 L93.7247046,30.4588738 C92.0508448,31.8706538 90.22165,32.5380717 87.9419281,32.5380717 C83.5052047,32.5380717 80.1823609,29.3081335 80.1823609,24.7918056 C80.1823609,20.2754777 83.5643536,17.0449695 87.7611645,17.0449695 C92.0204412,17.0449695 95,20.4008679 95,24.9804609 L95,25.9214575 L84.2304702,25.9214575 C84.4952585,28.1716421 86.317267,29.4654413 88.0994744,29.4654413 Z M87.9419281,20.1176 C86.4206395,20.1176 84.6865252,21.1218617 84.2304702,23.5367634 L91.0746109,23.5367634 C90.9225926,21.2791694 89.462664,20.1176 87.9419281,20.1176 Z M26.7556645,20.9660358 C28.6417972,18.5824816 31.5920579,17.0453115 34.8773118,17.0453115 C40.1100583,17.0453115 43.4555667,21.0595085 43.4555667,25.1996658 C43.4555667,29.276558 40.3217784,32.5378438 36.3372403,32.5378438 C35.5163415,32.5378438 34.7556971,32.4130235 34.0558601,32.1935906 L34.0558601,39 L30.0403656,39 L30.0403656,21.3724142 C29.4322924,21.7810723 28.8850264,22.2199381 28.3980151,22.7528465 L26.7556645,20.9660358 Z M34.0558601,19.9617741 L34.0558601,29.5894636 C34.3903004,29.7159937 34.8165044,29.7786888 35.2123048,29.7786888 C36.9149099,29.7786888 39.3190103,28.3988264 39.3190103,25.1996658 C39.3190103,21.874545 37.1581392,19.899649 35.0293301,19.899649 C34.6954426,19.899649 34.3593439,19.9309965 34.0558601,19.9617741 Z" id="Combined-Shape" fill="#FFFFFF"></path>
            <path d="M62.8554597,5.14479524 C63.8587789,6.14808561 63.8587789,7.77613961 62.8554597,8.77942998 C61.8521404,9.78272035 60.2234837,9.78272035 59.2201645,8.77998582 C58.2162894,7.77558377 58.2174011,6.14808561 59.2207203,5.14479524 C60.2240396,4.14206071 61.8510287,4.14094903 62.8554597,5.14479524 Z M58.3874373,9.61268903 C59.3907565,10.6154236 59.3913124,12.2434776 58.3874373,13.2473238 C57.384118,14.2506141 55.7560171,14.2500583 54.7526979,13.2473238 C53.7488228,12.2429217 53.7493786,10.6159794 54.7526979,9.61268903 C55.756573,8.60939866 57.3835622,8.60828699 58.3874373,9.61268903 Z M67.2474967,0.752884712 C68.2508159,1.75561924 68.2508159,3.38422909 67.2474967,4.38751945 C66.2441774,5.39080982 64.6155207,5.39080982 63.6127573,4.38807529 C62.6083263,3.38367325 62.609438,1.75617508 63.6127573,0.752884712 C64.6166324,-0.250405654 66.2430657,-0.251517333 67.2474967,0.752884712 Z M63.6129796,9.61268903 C64.6162989,8.6099545 66.2438439,8.60939866 67.247719,9.61268903 C68.2510382,10.6159794 68.2504824,12.2445892 67.247719,13.2473238 C66.2438439,14.25117 64.6162989,14.2506141 63.6129796,13.2473238 C62.6096604,12.2434776 62.6091045,10.6170911 63.6129796,9.61268903 Z M54.7526979,0.753162632 C55.7560171,-0.250127734 57.384118,-0.250127734 58.3874373,0.753162632 C59.3913124,1.756453 59.3913124,3.38506285 58.3879931,4.38779737 C57.384118,5.39219942 55.756573,5.3905319 54.7526979,4.38724153 C53.7499345,3.38395117 53.7488228,1.75700884 54.7526979,0.753162632 Z" id="Combined-Shape" fill="#FFFFFF"></path>
        </g>
    </g>
</svg>