<svg xmlns="http://www.w3.org/2000/svg" width="24" height="24" viewBox="0 0 24 24">
    <defs>
        <linearGradient id="a" x1="0%" y1="100%" y2="3.505%">
            <stop offset="0%" stop-color="#FDD8BF"/>
            <stop offset="100%" stop-color="#F97B92"/>
            <stop offset="100%" stop-color="#F85A6C"/>
        </linearGradient>
    </defs>
    <g fill="none" fill-rule="evenodd">
        <path fill="#FFF" d="M-318-20H42v2711h-360z"/>
        <path fill="url(#a)" fill-rule="nonzero" d="M0 0h360v61H0z" transform="translate(-318 -20)"/>
        <path fill="#FFF" fill-rule="nonzero" d="M12 2.85a3.15 3.15 0 1 1 0 6.3 3.15 3.15 0 0 1 0-6.3zm0 13.5c4.455 0 9.15 2.19 9.15 3.15v1.65H2.85V19.5c0-.96 4.695-3.15 9.15-3.15zM12 0C8.685 0 6 2.685 6 6s2.685 6 6 6 6-2.685 6-6-2.685-6-6-6zm0 13.5c-4.005 0-12 2.01-12 6V24h24v-4.5c0-3.99-7.995-6-12-6z"/>
        <path d="M-6-6h36v36H-6z"/>
    </g>
</svg>
