<svg xmlns="http://www.w3.org/2000/svg" width="144" height="36" viewBox="0 0 144 36">
    <g fill="none" fill-rule="evenodd">
        <path fill="#FFB466" d="M33.416 26.67c-1.6-.101-1.594 2.388 0 2.488a64.21 64.21 0 0 0 2.199.098c-4.618 2.159-10.095 3.686-15.144 3.584-5.038-.102-10.991-1.519-15.299-4.23-1.36-.857-2.61 1.295-1.256 2.148 4.694 2.955 11.06 4.46 16.555 4.57 5.594.114 11.537-1.605 16.598-4.018a34.465 34.465 0 0 1-.827 1.998c-.658 1.447 1.487 2.713 2.15 1.256.917-2.018 1.688-4.069 2.237-6.219.194-.761-.376-1.598-1.2-1.575-2.007.06-4.01.026-6.013-.1z"/>
        <path fill="#C06B27" d="M43.958 23.432L44 2.722a1.901 1.901 0 0 0-.603-1.389c.16.281.26.602.26.946l-.044 20.712a1.905 1.905 0 0 1-1.899 1.901l-39.092-.08a1.88 1.88 0 0 1-1.289-.52c.328.57.934.96 1.633.962l39.092.08a1.907 1.907 0 0 0 1.9-1.902"/>
        <path fill="#FFB466" d="M1.96 0l39.462.08a1.917 1.917 0 0 1 1.911 1.913l-.042 20.767a1.918 1.918 0 0 1-1.918 1.907l-39.463-.08A1.917 1.917 0 0 1 0 22.673L.042 1.906A1.917 1.917 0 0 1 1.961 0"/>
        <path fill="#58B2FE" d="M.444 22.897L.486 2.33C.488 1.289 1.346.439 2.391.44l39.184.08c.407 0 .783.132 1.092.351A1.897 1.897 0 0 0 41.13.08L1.947 0A1.902 1.902 0 0 0 .04 1.888L0 22.456c-.001.637.32 1.2.806 1.544a1.863 1.863 0 0 1-.362-1.103"/>
        <path fill="#FFF" d="M2 14.976c0-.539.482-.978 1.07-.976l15.197.04c.587 0 1.067.444 1.066.983 0 .54-.482.979-1.07.977l-15.197-.04C2.48 15.956 2 15.515 2 14.975M12.667 17.624c0-.533.488-.964 1.085-.957l5.167.061c.595.006 1.082.448 1.081.982 0 .533-.489.963-1.085.957l-5.167-.061c-.595-.008-1.082-.449-1.081-.982"/>
        <path fill="#333" d="M0 9.333h43.333V4H0z"/>
        <path fill="#FFF" d="M35.985 19.312a3.733 3.733 0 0 1-2.778.806c-2.071-.236-3.565-2.123-3.331-4.207a3.793 3.793 0 0 1 4.179-3.352c2.069.235 3.563 2.123 3.329 4.205a3.784 3.784 0 0 1-1.4 2.548m5.797 2.9c-.858-.933-1.84-1.728-2.781-2.572a6.337 6.337 0 0 0 .886-2.59c.39-3.473-2.099-6.619-5.549-7.01-3.452-.387-6.573 2.113-6.964 5.586-.389 3.474 2.1 6.619 5.55 7.01a6.228 6.228 0 0 0 4.631-1.342c.01-.006.018-.014.026-.022.909.808 1.85 1.577 2.675 2.476.789.858 2.312-.68 1.526-1.536"/>
        <g fill="#FFF">
            <path d="M56.807 22.92l4.411-12.46c.34-.963.974-1.443 1.9-1.44.9.002 1.181.485.84 1.447l-1.58 4.464c.968-.39 1.87-.8 2.709-1.229.903-.478 1.502-.338 1.798.424.343.9-.082 1.59-1.273 2.069a97.616 97.616 0 0 1-4.21 1.49l-1.862 5.261c-.206.583-.298.944-.275 1.083.023.14.185.21.486.21l1.496.005c.24 0 .463-.14.67-.416.358-.772.767-1.376 1.228-1.813.462-.435.903-.52 1.327-.253.276.167.381.493.31.981-.07.488-.227.991-.47 1.51-.55.975-1.112 1.676-1.685 2.104-.574.43-1.262.645-2.067.643l-2.218-.007c-1.154-.003-1.835-.29-2.05-.862-.212-.57-.04-1.64.515-3.212m-.155-5.78l-2.072-.006-2.051 5.794c.592-.113 1.31-.257 2.154-.432.993-.187 1.36.22 1.103 1.22-.233.861-.792 1.386-1.676 1.574-1.611.337-3.588.738-5.928 1.2-.477.087-.803.042-.981-.135-.178-.18-.238-.503-.18-.971.112-1.027.68-1.614 1.707-1.763a4.83 4.83 0 0 1 .427-.085c.19-.03.331-.053.42-.065l4.606-13.012c.345-.975.98-1.46 1.906-1.458.913.003 1.197.49.852 1.466l-1.379 3.895 2.074.004c.877.003 1.152.467.825 1.391-.327.925-.93 1.385-1.807 1.382M77.934 15.924l6.093.019c.887.002 1.168.479.842 1.429-.332.965-.94 1.446-1.826 1.443l-6.093-.018-.558 1.622.48-.507c.258-.259.49-.357.695-.291 1.448.565 2.714 1.143 3.795 1.733.36.21.516.47.47.784-.048.313-.282.696-.703 1.152-.408.455-.742.739-1 .847-.26.111-.57.061-.93-.148-.828-.525-1.963-1.134-3.403-1.83l-1.482 4.32c-.348 1.016-.99 1.524-1.925 1.521-.935-.003-1.227-.513-.878-1.529l2.635-7.682-5.177-.015c-.887-.003-1.165-.485-.834-1.45.327-.95.933-1.425 1.82-1.423l5.176.015 1.85-5.395c.35-1.016.99-1.524 1.925-1.521.935.003 1.228.514.88 1.53l-.236.683 4.17.013c.839.003 1.1.466.783 1.39-.318.926-.896 1.388-1.736 1.386l-4.17-.013-.663 1.935zM93.33 11l1.953.006c.316 0 .529.092.64.272.112.18.102.431-.029.753l-.923 2.255-2.52 5.105c-.379.76-.967 1.137-1.764 1.134-.809-.002-1.125-.382-.948-1.141l1.23-5.11.627-1.966a1.93 1.93 0 0 1 .672-.954A1.713 1.713 0 0 1 93.33 11m-1.584 12.848a3.167 3.167 0 0 1-1.227 1.56c-.582.396-1.203.594-1.86.592-.67-.002-1.146-.206-1.427-.612-.282-.406-.307-.923-.076-1.553.227-.617.634-1.133 1.224-1.55.59-.416 1.214-.624 1.87-.623.659.003 1.129.214 1.412.631.283.42.311.937.084 1.555M104.807 22.92l4.411-12.461c.34-.962.974-1.442 1.9-1.44.9.003 1.18.486.84 1.448l-1.58 4.464c.967-.39 1.871-.8 2.709-1.229.903-.478 1.502-.337 1.798.425.343.9-.082 1.59-1.273 2.067a97.89 97.89 0 0 1-4.21 1.492l-1.861 5.26c-.206.584-.3.945-.276 1.083.023.142.185.21.485.212l1.496.004c.24 0 .465-.138.67-.416.358-.772.768-1.377 1.229-1.813.461-.435.903-.52 1.326-.252.277.166.382.492.311.98-.07.487-.228.991-.47 1.51-.55.975-1.112 1.677-1.684 2.105-.574.43-1.263.644-2.07.641l-2.216-.006c-1.152-.003-1.836-.29-2.049-.861-.214-.571-.041-1.642.514-3.212m-.155-5.781l-2.073-.006-2.05 5.793c.592-.111 1.31-.256 2.155-.43.992-.187 1.36.219 1.101 1.22-.232.861-.79 1.385-1.675 1.573-1.612.337-3.589.737-5.929 1.2-.476.087-.803.041-.98-.136-.178-.178-.237-.502-.18-.97.111-1.026.68-1.615 1.707-1.765a5.02 5.02 0 0 1 .427-.082c.191-.031.332-.054.42-.066l4.606-13.012c.345-.976.98-1.46 1.906-1.459.912.003 1.197.492.853 1.466l-1.38 3.895 2.073.006c.878.002 1.153.465.826 1.39-.328.924-.93 1.386-1.807 1.383M126.934 14.924l6.094.017c.887.003 1.166.48.84 1.431-.331.966-.939 1.445-1.825 1.443l-6.094-.018-.557 1.622.48-.507c.258-.26.49-.357.694-.292 1.449.565 2.715 1.144 3.795 1.733.36.21.516.47.47.784-.047.313-.282.698-.701 1.153-.408.455-.742.738-1.001.847-.26.111-.57.06-.93-.15-.828-.523-1.962-1.133-3.403-1.828l-1.481 4.32c-.35 1.015-.99 1.523-1.925 1.521-.934-.003-1.227-.514-.88-1.53l2.637-7.682-5.178-.014c-.886-.003-1.165-.485-.835-1.45.327-.951.933-1.426 1.82-1.423l5.178.014 1.85-5.394c.348-1.016.989-1.524 1.924-1.521.934.003 1.227.514.879 1.53l-.235.684 4.17.013c.84.002 1.1.465.782 1.39-.317.926-.895 1.386-1.734 1.384l-4.17-.012-.664 1.935zM141.33 10l1.953.005c.316 0 .53.091.64.271.111.18.102.431-.028.753l-.924 2.256-2.52 5.107c-.379.758-.967 1.135-1.763 1.133-.81-.002-1.127-.382-.949-1.141l1.23-5.11.627-1.966c.133-.398.357-.717.673-.955a1.709 1.709 0 0 1 1.06-.353m-1.583 12.847a3.167 3.167 0 0 1-1.227 1.56c-.582.397-1.204.595-1.86.593-.67-.002-1.146-.206-1.428-.61-.28-.407-.306-.925-.074-1.555.225-.616.633-1.134 1.224-1.55.588-.416 1.212-.624 1.87-.622.658.002 1.127.212 1.41.631.284.419.312.937.085 1.553"/>
        </g>
    </g>
</svg>
