<?xml version="1.0" encoding="UTF-8"?>
<svg width="22px" height="22px" viewBox="0 0 22 22" version="1.1" xmlns="http://www.w3.org/2000/svg" xmlns:xlink="http://www.w3.org/1999/xlink">
    <!-- Generator: Sketch 50.2 (55047) - http://www.bohemiancoding.com/sketch -->
    <title>icon/epay/none</title>
    <desc>Created with Sketch.</desc>
    <defs>
        <rect id="path-1" x="0" y="0" width="22" height="22" rx="5"></rect>
    </defs>
    <g id="icon/epay/none" stroke="none" stroke-width="1" fill="none" fill-rule="evenodd">
        <g id="Bitmap-Copy-2">
            <mask id="mask-2" fill="white">
                <use xlink:href="#path-1"></use>
            </mask>
            <rect stroke="#979797" x="0.5" y="0.5" width="21" height="21" rx="5"></rect>
            <path d="M6.184,6.776 C5.736,7.304 5.24,7.784 4.68,8.232 L3.672,6.888 C4.84,6.04 5.64,5.016 6.056,3.8 L7.672,4.008 C7.544,4.424 7.384,4.824 7.192,5.208 L17.464,5.208 L17.464,6.776 L6.184,6.776 Z M5.912,7.352 L7.496,7.352 L7.496,9.112 L8.856,9.112 L8.856,7.352 L10.456,7.352 L10.456,9.112 L11.848,9.112 L11.848,7.352 L13.432,7.352 L13.432,9.112 L14.792,9.112 L14.792,7.352 L16.392,7.352 L16.392,9.112 L17.8,9.112 L17.8,10.648 L16.392,10.648 L16.392,12.84 L18.008,12.84 L18.008,14.392 L3.992,14.392 L3.992,12.84 L5.912,12.84 L5.912,10.648 L4.216,10.648 L4.216,9.112 L5.912,9.112 L5.912,7.352 Z M7.496,12.84 L8.856,12.84 L8.856,10.648 L7.496,10.648 L7.496,12.84 Z M10.456,12.84 L11.848,12.84 L11.848,10.648 L10.456,10.648 L10.456,12.84 Z M13.432,12.84 L14.792,12.84 L14.792,10.648 L13.432,10.648 L13.432,12.84 Z M5.896,14.712 L7.272,15.4 C6.728,16.712 6.072,17.832 5.32,18.792 L3.96,17.784 C4.696,16.92 5.352,15.896 5.896,14.712 Z M9.752,15.112 C10.072,16.088 10.376,17.144 10.632,18.264 L8.952,18.664 C8.76,17.448 8.504,16.376 8.216,15.448 L9.752,15.112 Z M13.288,15.016 C13.704,15.992 14.072,17.048 14.392,18.184 L12.712,18.568 C12.456,17.352 12.136,16.28 11.752,15.352 L13.288,15.016 Z M16.152,14.648 C17.08,15.832 17.784,16.856 18.28,17.72 L16.888,18.696 C16.392,17.72 15.72,16.648 14.872,15.464 L16.152,14.648 Z" id="無" fill="#9B9B9B" mask="url(#mask-2)"></path>
        </g>
    </g>
</svg>