<?xml version="1.0" encoding="UTF-8"?>
<svg width="56px" height="16px" viewBox="0 0 56 16" version="1.1" xmlns="http://www.w3.org/2000/svg" xmlns:xlink="http://www.w3.org/1999/xlink">
    <!-- Generator: Sketch 50.2 (55047) - http://www.bohemiancoding.com/sketch -->
    <title>icon/epay/applepay</title>
    <desc>Created with Sketch.</desc>
    <defs>
        <rect id="path-1" x="0" y="0" width="56" height="16" rx="5"></rect>
        <filter x="-3.6%" y="-12.5%" width="107.1%" height="125.0%" filterUnits="objectBoundingBox" id="filter-3">
            <feGaussianBlur stdDeviation="1.5" in="SourceAlpha" result="shadowBlurInner1"></feGaussianBlur>
            <feOffset dx="0" dy="1" in="shadowBlurInner1" result="shadowOffsetInner1"></feOffset>
            <feComposite in="shadowOffsetInner1" in2="SourceAlpha" operator="arithmetic" k2="-1" k3="1" result="shadowInnerInner1"></feComposite>
            <feColorMatrix values="0 0 0 0 0.831021471   0 0 0 0 0.831021471   0 0 0 0 0.831021471  0 0 0 0.5 0" type="matrix" in="shadowInnerInner1"></feColorMatrix>
        </filter>
    </defs>
    <g id="Page-1" stroke="none" stroke-width="1" fill="none" fill-rule="evenodd">
        <g id="m/simple/member/card/支付列表" transform="translate(-98.000000, -232.000000)">
            <g id="信用卡列表" transform="translate(13.000000, 174.000000)">
                <g id="Group-6-[8v]">
                    <g id="shadow/list-copy-5" transform="translate(1.000000, 0.000000)">
                        <g id="支付icon-[2h]" transform="translate(84.000000, 58.000000)">
                            <g id="icon/epay">
                                <g id="Bitmap-Copy-4" stroke-width="1">
                                    <mask id="mask-2" fill="white">
                                        <use xlink:href="#path-1"></use>
                                    </mask>
                                    <g id="Mask">
                                        <use fill="#FFFFFF" fill-rule="evenodd" xlink:href="#path-1"></use>
                                        <use fill="#49C0F9" fill-rule="evenodd" xlink:href="#path-1"></use>
                                        <use fill="black" fill-opacity="1" filter="url(#filter-3)" xlink:href="#path-1"></use>
                                    </g>
                                </g>
                                <polygon id="+" fill="#FFFFFF" points="7.07467327 4 8.02936634 4 8.02936634 7.06063366 11.09 7.06063366 11.09 8.01532673 8.02936634 8.01532673 8.02936634 11.09 7.07467327 11.09 7.07467327 8.01532673 4 8.01532673 4 7.06063366 7.07467327 7.06063366"></polygon>
                                <path d="M14.357707,9.41897655 L15.0631847,9.50533049 C15.0135032,10.3784648 14.9042038,11.1556503 14.7253503,11.836887 L14,11.6162047 C14.1887898,10.9829424 14.3080255,10.2441365 14.357707,9.41897655 Z M15.9872611,9.3326226 C16.1064968,9.93710021 16.2157962,10.5895522 16.3151592,11.2899787 L15.5798726,11.4530917 C15.5103185,10.7046908 15.4208917,10.0522388 15.3215287,9.47654584 L15.9872611,9.3326226 Z M16.633121,6.89552239 C16.8119745,7.43283582 16.9808917,8.06609808 17.12,8.78571429 L16.4443312,8.94882729 C16.404586,8.78571429 16.3747771,8.63219616 16.3449682,8.48827292 C15.6494268,8.73773987 14.973758,8.91044776 14.3378344,8.99680171 L14.1092994,8.21002132 C14.2682803,8.15245203 14.3974522,8.06609808 14.5067516,7.97014925 C14.7551592,7.68230277 15.0532484,7.21215352 15.4109554,6.54051173 C15.0333758,6.59808102 14.6557962,6.6652452 14.2682803,6.73240938 L14.0397452,5.93603412 C14.1788535,5.87846482 14.3080255,5.76332623 14.4272611,5.6098081 C14.8048408,4.84221748 15.1228025,3.9978678 15.4010191,3.0575693 L16.275414,3.38379531 C15.8680255,4.40085288 15.4606369,5.22601279 15.0433121,5.87846482 C15.3016561,5.84008529 15.5500637,5.80170576 15.8084076,5.75373134 C15.9673885,5.39872068 16.146242,5.01492537 16.3350318,4.6119403 L17.1100637,4.8901919 C16.404586,6.34861407 15.8084076,7.40405117 15.331465,8.06609808 C15.6096815,8.00852878 15.8978344,7.93176972 16.1859873,7.8358209 C16.1164331,7.57675906 16.046879,7.32729211 15.9773248,7.09701493 L16.633121,6.89552239 Z M16.8815287,9.07356077 C17.0802548,9.53411514 17.2690446,10.0234542 17.4280255,10.5511727 L16.7821656,10.8390192 C16.6231847,10.2441365 16.4443312,9.71641791 16.2654777,9.2750533 L16.8815287,9.07356077 Z M20.3492994,3.38379531 L23.0817834,3.38379531 L23.0817834,4.06503198 C22.8532484,5.04371002 22.6048408,5.96481876 22.3266242,6.81876333 C22.9526115,7.81663113 23.2705732,8.63219616 23.2805096,9.26545842 C23.2805096,9.80277186 23.1712102,10.1769723 22.9724841,10.3784648 C22.7538854,10.5895522 22.3067516,10.7046908 21.6310828,10.7046908 L21.3727389,9.86034115 C21.6807643,9.89872068 21.9490446,9.91791045 22.1676433,9.91791045 C22.286879,9.90831557 22.3564331,9.86034115 22.3961783,9.76439232 C22.4359236,9.68763326 22.4557962,9.51492537 22.4557962,9.26545842 C22.4458599,8.64179104 22.1080255,7.82622601 21.442293,6.81876333 C21.6907006,6.08955224 21.929172,5.21641791 22.1676433,4.20895522 L21.213758,4.20895522 L21.213758,11.8560768 L20.3492994,11.8560768 L20.3492994,3.38379531 Z M17.4379618,6.14712154 L18.2825478,6.14712154 L18.2825478,5.1108742 C17.9943949,5.13965885 17.6963057,5.1684435 17.3783439,5.20682303 L17.1498089,4.45842217 C17.5671338,4.42963753 17.9447134,4.391258 18.2825478,4.35287846 L18.2825478,3.10554371 L19.1966879,3.10554371 L19.1966879,4.16098081 C19.4550318,4.08422175 19.6835669,4.00746269 19.882293,3.91151386 L20.1704459,4.68869936 C19.9121019,4.78464819 19.5842038,4.88059701 19.1966879,4.95735608 L19.1966879,6.14712154 L19.9419108,6.14712154 L19.9419108,6.95309168 L19.1966879,6.95309168 L19.1966879,7.84541578 C19.1966879,7.96055437 19.1867516,8.06609808 19.1867516,8.17164179 L20.0611465,8.17164179 L20.0611465,8.97761194 L19.1171975,8.97761194 C18.9383439,10.282516 18.4713376,11.2707889 17.7161783,11.9520256 L17.0206369,11.3667377 C17.6366879,10.8198294 18.0341401,10.0234542 18.193121,8.97761194 L17.348535,8.97761194 L17.348535,8.17164179 L18.2726115,8.17164179 C18.2726115,8.0565032 18.2825478,7.95095949 18.2825478,7.84541578 L18.2825478,6.95309168 L17.4379618,6.95309168 L17.4379618,6.14712154 Z M25.6652229,5.85927505 L31.5673885,5.85927505 L31.5673885,6.7228145 L29.1230573,6.7228145 L29.1230573,8.16204691 L31.9847134,8.16204691 L31.9847134,9.02558635 L29.1230573,9.02558635 L29.1230573,10.7910448 C29.7987261,10.8869936 30.6234395,10.934968 31.6170701,10.9445629 C32.1138854,10.9445629 32.6305732,10.9157783 33.1472611,10.8773987 L32.9684076,11.7793177 L32.0343949,11.7793177 C29.9477707,11.7793177 28.4473885,11.5970149 27.553121,11.2324094 C26.9171975,10.9445629 26.4005096,10.5223881 26.0030573,9.96588486 C25.6254777,10.7334755 25.1584713,11.3859275 24.6020382,11.9232409 L23.9859873,11.1940299 C24.92,10.2537313 25.5559236,8.98720682 25.8738854,7.41364606 L26.7880255,7.56716418 C26.6687898,8.12366738 26.5197452,8.65138593 26.350828,9.13113006 C26.8178344,9.87953092 27.4040764,10.3688699 28.0996178,10.5799574 L28.1890446,10.5991471 L28.1890446,6.7228145 L25.6652229,6.7228145 L25.6652229,5.85927505 Z M32.7696815,3.98827292 L32.7696815,6.1663113 L31.8456051,6.1663113 L31.8456051,4.8326226 L25.3671338,4.8326226 L25.3671338,6.21428571 L24.4430573,6.21428571 L24.4430573,3.98827292 L28.1791083,3.98827292 C28.04,3.68123667 27.8810191,3.40298507 27.7220382,3.15351812 L28.7355414,3 C28.8746497,3.29744136 29.013758,3.62366738 29.1429299,3.98827292 L32.7696815,3.98827292 Z M38.0458599,3.08635394 L39.0196178,3.08635394 L39.0196178,4.26652452 L42.8252229,4.26652452 L42.8252229,5.14925373 L39.0196178,5.14925373 L39.0196178,6.40618337 L41.6626752,6.40618337 L41.6626752,7.21215352 C41.136051,8.24840085 40.3709554,9.13113006 39.3773248,9.86993603 C39.8244586,10.1002132 40.3113376,10.3208955 40.8379618,10.5127932 C41.5533758,10.7622601 42.2985987,10.9829424 43.0935032,11.1556503 L42.5470064,11.9616205 C41.6825478,11.7409382 40.8677707,11.4722814 40.0927389,11.1556503 C39.546242,10.9253731 39.0394904,10.6759062 38.5724841,10.4072495 C37.4695541,11.0692964 36.1380892,11.5970149 34.5880255,12 L34.0415287,11.184435 C35.4922293,10.8678038 36.7342675,10.4264392 37.757707,9.86993603 C37.2608917,9.49573561 36.8236943,9.07356077 36.456051,8.6130064 C36.1082803,8.19083156 35.8598726,7.73987207 35.710828,7.26012793 L35.0152866,7.26012793 L35.0152866,6.40618337 L38.0458599,6.40618337 L38.0458599,5.14925373 L34.2601274,5.14925373 L34.2601274,4.26652452 L38.0458599,4.26652452 L38.0458599,3.08635394 Z M38.5526115,9.3901919 C39.4270064,8.78571429 40.1126115,8.07569296 40.5895541,7.26012793 L36.6448408,7.26012793 C36.8236943,7.71108742 37.0820382,8.10447761 37.4198726,8.44989339 C37.757707,8.79530917 38.1352866,9.1119403 38.5526115,9.3901919 Z M46.0545223,3 L46.9388535,3.40298507 C46.7202548,4.0554371 46.4321019,4.68869936 46.0942675,5.29317697 L46.0942675,11.9616205 L45.1503185,11.9616205 L45.1503185,6.70362473 C44.8323567,7.10660981 44.484586,7.5 44.1070064,7.88379531 L43.8089172,6.93390192 C44.8224204,5.81130064 45.5775796,4.49680171 46.0545223,3 Z M47.0481529,5.09168443 L50.6848408,5.09168443 L50.6848408,3.12473348 L51.6287898,3.12473348 L51.6287898,5.09168443 L53,5.09168443 L53,5.97441365 L51.6287898,5.97441365 L51.6287898,10.8486141 C51.6287898,11.5394456 51.2810191,11.8944563 50.5854777,11.8944563 L49.1049682,11.8944563 L48.8963057,11.0021322 C49.3633121,11.0405117 49.8203822,11.0597015 50.2575796,11.0597015 C50.5357962,11.0597015 50.6848408,10.9061834 50.6848408,10.6183369 L50.6848408,5.97441365 L47.0481529,5.97441365 L47.0481529,5.09168443 Z M48.0715924,6.87633262 C48.806879,7.71108742 49.3732484,8.44029851 49.7707006,9.07356077 L48.9658599,9.6108742 C48.548535,8.92963753 47.9921019,8.17164179 47.2965605,7.33688699 L48.0715924,6.87633262 Z" id="綁定支付" fill="#FFFFFF"></path>
                            </g>
                        </g>
                    </g>
                </g>
            </g>
        </g>
    </g>
</svg>