<svg xmlns="http://www.w3.org/2000/svg" width="44" height="44" viewBox="0 0 44 44">
    <g fill="none" fill-rule="evenodd">
        <path d="M10 10h24v24H10z"/>
        <path fill="#A4AAB3" fill-rule="nonzero" d="M18 14.273v-.91c0-.752.61-1.363 1.364-1.363h5.454c.753 0 1.364.61 1.364 1.364v.909h3.409a1.59 1.59 0 0 1 .145 3.175l-1.172 12.898A1.818 1.818 0 0 1 26.753 32h-9.324c-.94 0-1.726-.717-1.81-1.654l-1.173-12.898a1.591 1.591 0 0 1 .145-3.175H18zm0 .909h-3.41a.682.682 0 1 0 0 1.363h15a.682.682 0 1 0 0-1.363H18zm-2.64 2.273l1.164 12.81a.91.91 0 0 0 .905.826h9.324a.91.91 0 0 0 .905-.827l1.165-12.81H15.359zm6.276 1.59a.455.455 0 0 1 .91 0V29.5a.455.455 0 1 1-.91 0V19.045zm3.866.188a.455.455 0 0 1 .905.08l-.909 10.454a.455.455 0 0 1-.905-.08l.909-10.454zm-7.728.08a.455.455 0 1 1 .906-.08l.91 10.455a.455.455 0 0 1-.906.079l-.91-10.455zm7.499-5.04v-.91a.455.455 0 0 0-.455-.454h-5.454a.455.455 0 0 0-.455.455v.909h6.364z"/>
    </g>
</svg>
