<svg xmlns="http://www.w3.org/2000/svg" width="24" height="24" viewBox="0 0 24 24">
    <defs>
        <path id="a" d="M12 12c2.21 0 4-1.79 4-4s-1.79-4-4-4-4 1.79-4 4 1.79 4 4 4zm0 1c-2.336 0-7 1.149-7 3.429V19h14v-2.571C19 14.149 14.336 13 12 13z"/>
    </defs>
    <path fill="none" fill-rule="evenodd" stroke="#FFF" d="M12 11.5c1.934 0 3.5-1.566 3.5-3.5S13.934 4.5 12 4.5A3.499 3.499 0 0 0 8.5 8c0 1.934 1.566 3.5 3.5 3.5zm-6.5 7h13v-2.071c0-1.536-3.55-2.929-6.5-2.929s-6.5 1.393-6.5 2.929V18.5z"/>
</svg>
