<?xml version="1.0" encoding="UTF-8"?>
<svg width="23px" height="17px" viewBox="0 0 23 17" version="1.1" xmlns="http://www.w3.org/2000/svg" xmlns:xlink="http://www.w3.org/1999/xlink">
    <!-- Generator: Sketch 52.5 (67469) - http://www.bohemiancoding.com/sketch -->
    <title>ic/local_shipping</title>
    <desc>Created with Sketch.</desc>
    <defs>
        <path d="M20.8333333,8.33333333 L17.7083333,8.33333333 L17.7083333,4.16666667 L3.125,4.16666667 C1.97916667,4.16666667 1.04166667,5.10416667 1.04166667,6.25 L1.04166667,17.7083333 L3.125,17.7083333 C3.125,19.4375 4.52083333,20.8333333 6.25,20.8333333 C7.97916667,20.8333333 9.375,19.4375 9.375,17.7083333 L15.625,17.7083333 C15.625,19.4375 17.0208333,20.8333333 18.75,20.8333333 C20.4791667,20.8333333 21.875,19.4375 21.875,17.7083333 L23.9583333,17.7083333 L23.9583333,12.5 L20.8333333,8.33333333 Z M6.25,19.2708333 C5.38541667,19.2708333 4.6875,18.5729167 4.6875,17.7083333 C4.6875,16.84375 5.38541667,16.1458333 6.25,16.1458333 C7.11458333,16.1458333 7.8125,16.84375 7.8125,17.7083333 C7.8125,18.5729167 7.11458333,19.2708333 6.25,19.2708333 Z M20.3125,9.89583333 L22.3541667,12.5 L17.7083333,12.5 L17.7083333,9.89583333 L20.3125,9.89583333 Z M18.75,19.2708333 C17.8854167,19.2708333 17.1875,18.5729167 17.1875,17.7083333 C17.1875,16.84375 17.8854167,16.1458333 18.75,16.1458333 C19.6145833,16.1458333 20.3125,16.84375 20.3125,17.7083333 C20.3125,18.5729167 19.6145833,19.2708333 18.75,19.2708333 Z" id="path-1"></path>
    </defs>
    <g id="Page-2" stroke="none" stroke-width="1" fill="none" fill-rule="evenodd">
        <g id="Mobile/試用體驗/試用活動頁/申請/活動說明" transform="translate(-212.000000, -430.000000)">
            <rect fill="#FFFFFF" x="0" y="0" width="360" height="1257"></rect>
            <g id="程序列" transform="translate(-4.000000, 372.000000)">
                <g id="流程" transform="translate(0.000000, 41.000000)">
                    <rect id="Rectangle-5" stroke="#E5E5E5" x="4.5" y="0.5" width="359" height="57"></rect>
                    <g id="・・・" transform="translate(98.000000, 19.000000)"></g>
                    <g id="配送" transform="translate(210.000000, 10.000000)">
                        <g id="ic/local_shipping" transform="translate(5.000000, 3.000000)">
                            <g id="ic_local_shipping_24px">
                                <mask id="mask-2" fill="white">
                                    <use xlink:href="#path-1"></use>
                                </mask>
                                <g id="Shape" fill-rule="nonzero"></g>
                                <g id="c/color/grey/600" mask="url(#mask-2)" fill="#80868B">
                                    <rect id="Shape" x="0" y="0" width="25" height="25"></rect>
                                </g>
                            </g>
                        </g>
                    </g>
                </g>
            </g>
        </g>
    </g>
</svg>